<?xml version="1.0" encoding="UTF-8"?><svg id="Capa_13" xmlns="http://www.w3.org/2000/svg" viewBox="0 0 201.71 50.69"><defs><style>.cls-1{fill:#fff;}.cls-2{opacity:.6;}.cls-3{fill:#57fa7b;}</style></defs><g class="cls-2"><rect class="cls-3" y="0" width="201.71" height="50.69" rx="21" ry="21"/></g><g><g><path class="cls-1" d="M77.52,33.55V16.58h8.29c2.13,0,3.74,.4,4.81,1.21,1.07,.81,1.61,1.88,1.61,3.2,0,.89-.22,1.66-.66,2.32-.44,.65-1.03,1.16-1.79,1.51s-1.63,.53-2.62,.53l.46-.99c1.07,0,2.01,.17,2.84,.52,.82,.35,1.47,.86,1.93,1.54s.69,1.51,.69,2.5c0,1.46-.57,2.59-1.72,3.41-1.15,.82-2.84,1.22-5.07,1.22h-8.78Zm3.9-2.96h4.58c1.02,0,1.79-.17,2.32-.5,.53-.33,.79-.86,.79-1.59s-.26-1.24-.79-1.59-1.3-.52-2.32-.52h-4.87v-2.86h4.19c.95,0,1.68-.17,2.19-.5,.51-.33,.76-.84,.76-1.51s-.25-1.16-.76-1.49c-.51-.33-1.24-.5-2.19-.5h-3.9v11.06Z"/><path class="cls-1" d="M94.11,33.55l7.56-16.97h3.88l7.59,16.97h-4.12l-6.21-14.98h1.55l-6.23,14.98h-4.02Zm3.78-3.64l1.04-2.98h8.73l1.07,2.98h-10.84Z"/><path class="cls-1" d="M120.75,33.84c-1.36,0-2.66-.18-3.9-.55-1.25-.36-2.25-.84-3.01-1.42l1.33-2.96c.73,.52,1.59,.94,2.58,1.27,.99,.33,2,.5,3.02,.5,.78,0,1.4-.08,1.88-.23,.48-.15,.83-.37,1.05-.64,.23-.28,.34-.59,.34-.95,0-.45-.18-.81-.53-1.08-.36-.27-.82-.49-1.41-.66s-1.22-.33-1.93-.48-1.41-.34-2.11-.57c-.7-.23-1.34-.52-1.93-.87-.58-.35-1.05-.82-1.42-1.41-.36-.58-.54-1.32-.54-2.23,0-.97,.26-1.85,.79-2.65,.52-.8,1.32-1.44,2.38-1.92,1.06-.48,2.39-.71,3.99-.71,1.07,0,2.12,.12,3.15,.38s1.95,.63,2.74,1.13l-1.21,2.98c-.79-.45-1.58-.79-2.38-1.01-.79-.22-1.57-.33-2.33-.33s-1.38,.09-1.87,.27c-.48,.18-.83,.41-1.04,.69-.21,.28-.32,.61-.32,.98,0,.44,.18,.79,.53,1.05s.82,.48,1.41,.64c.58,.16,1.22,.32,1.93,.48,.7,.16,1.41,.35,2.11,.56,.7,.21,1.35,.49,1.93,.85,.58,.36,1.05,.82,1.42,1.41s.55,1.32,.55,2.21c0,.95-.27,1.83-.8,2.62s-1.33,1.43-2.39,1.92c-1.06,.49-2.4,.73-4.01,.73Z"/><path class="cls-1" d="M134.84,33.55h-3.93V16.58h3.93v16.97Zm8-6.96h-8.29v-3.32h8.29v3.32Zm-.29-10.01h3.93v16.97h-3.93V16.58Z"/></g><path class="cls-1" d="M52.15,7.17c.29,0,.57,0,.9,0,.67,.05,1.25,.28,1.79,.6,1.01,.6,2.02,1.2,3.03,1.81,.97,.58,1.94,1.15,2.9,1.73,.85,.51,1.7,1.04,2.56,1.55,1.01,.61,2.06,1.18,3.04,1.84,1.3,.87,1.98,2.14,1.99,3.71,.02,4.52,0,9.04,.01,13.56,0,.64-.08,1.26-.32,1.86-.29,.76-.75,1.39-1.37,1.9-.5,.41-1.07,.7-1.61,1.03-1.48,.9-2.97,1.78-4.46,2.67-1.47,.88-2.95,1.77-4.43,2.64-.61,.36-1.21,.76-1.85,1.07-.45,.21-.93,.28-1.4,.39-.2,0-.39,0-.63,0-.51-.11-.99-.18-1.44-.4-.86-.43-1.66-.96-2.49-1.45-1.04-.61-2.07-1.25-3.11-1.86-.95-.57-1.9-1.12-2.85-1.69-1.08-.65-2.17-1.29-3.25-1.94-.58-.35-1.09-.78-1.48-1.34-.45-.65-.74-1.37-.83-2.17,0-4.97,0-9.94,0-14.94,.14-.35,.19-.68,.33-1,.33-.76,.79-1.4,1.46-1.88,.82-.59,1.71-1.06,2.57-1.58,1.17-.72,2.36-1.41,3.54-2.12,1.07-.64,2.14-1.28,3.21-1.91,.59-.35,1.19-.7,1.78-1.06,.75-.47,1.51-.9,2.41-.99Zm-14.17,9.87c-.18,.42-.3,.85-.3,1.31,0,4.64,0,9.27,0,13.91,0,.46,.11,.88,.28,1.29,.34,.88,.97,1.49,1.77,1.95,1.07,.63,2.14,1.28,3.21,1.92,1.1,.66,2.2,1.32,3.3,1.97,1.29,.77,2.58,1.53,3.86,2.31,.69,.42,1.37,.87,2.21,.93,.21,.02,.43,.07,.67-.06-.25-.22-.49-.4-.59-.68-.13-.33-.21-.68-.21-1.04,0-4.48,0-8.95,0-13.43,0-.4,.08-.8,.23-1.17,.28-.71,.8-1.24,1.42-1.66,.82-.54,1.66-1.06,2.49-1.58,1.4-.88,2.8-1.75,4.21-2.62,1.54-.96,3.09-1.92,4.63-2.88,.24-.15,.5-.29,.77-.35,.6-.14,1.12,0,1.5,.52-.02-.11-.06-.21-.09-.31-.21-.74-.64-1.34-1.24-1.81-.54-.42-1.16-.72-1.74-1.08-.84-.52-1.7-1.02-2.55-1.52-1.25-.75-2.5-1.5-3.75-2.25-.98-.59-1.97-1.16-2.94-1.75-.52-.32-1.03-.66-1.62-.82-.9-.25-1.78-.13-2.58,.34-.97,.56-1.92,1.15-2.88,1.72-1.13,.68-2.25,1.35-3.38,2.03-1.68,1-3.37,2-5.05,3.01-.72,.43-1.29,1-1.63,1.83Zm17.19,14.04c-.05,.25-.06,.49-.02,.74,.07,.48,.31,.91,1,1.02,.29,.05,.58,.07,.87,.08,.29,.01,.55,.18,.59,.4,.07,.41,.02,.8-.23,1.14-.42,.56-.97,.83-1.68,.72-.25-.04-.37,.07-.42,.32-.03,.18-.08,.37-.13,.55-.09,.35-.02,.43,.35,.45,.32,.02,.62-.07,.93-.16,0,.07,.02,.13,.02,.18,0,.22,0,.44,0,.66,0,.11,.02,.25,.2,.19,.49-.16,.69-.41,.67-.92-.02-.4,.03-.75,.38-.99,.06-.05,.11-.13,.16-.19,.65-.81,.97-1.72,.82-2.78-.08-.61-.56-1.04-1.17-1.04-.29,0-.58-.03-.87-.09-.3-.06-.43-.19-.44-.5-.01-.27,.05-.53,.21-.75,.37-.5,.87-.74,1.49-.7,.17,.01,.32,0,.37-.2,.06-.25,.13-.5,.18-.75,.04-.22-.03-.32-.25-.33-.2,0-.4-.02-.6,.06-.08,.04-.18,.08-.31,.02,0-.25,0-.51,0-.78,0-.22-.1-.27-.29-.15-.09,.06-.18,.11-.27,.17-.17,.1-.27,.25-.27,.46,0,.24,0,.48,0,.73,0,.1-.02,.19-.11,.26-.12,.1-.23,.22-.33,.34-.43,.52-.75,1.11-.84,1.83Zm7.6,3.57c.37-.16,.6-.4,.51-.85-.02-.09,.04-.2-.05-.25-.1-.06-.18,.02-.27,.07-.74,.45-1.47,.93-2.24,1.34-.42,.22-.53,.49-.48,.91,.03,.24,.06,.27,.27,.15,.75-.45,1.49-.9,2.26-1.37Z"/></g></svg>