<?xml version="1.0" encoding="UTF-8"?><svg id="Capa_13" xmlns="http://www.w3.org/2000/svg" viewBox="0 0 112.7 128.95"><defs><style>.cls-1{fill:#fff;}.cls-2{fill:#4fc666;}.cls-3{fill:#3c8e48;}.cls-4{fill:#4a5;}.cls-5{fill:#57fa7b;}</style></defs><path class="cls-3" d="M86.97,120.34c-.85-11.71-5.14-40.03-25.71-59.48-4.53,.95-9.7,.31-15.13-2.17-4.56-2.07-8.8-5.21-12.51-9.02-.1,.04-1.63,.47-1.63,.47l-8.67,2.98-6.62,2.91c-3.82,4.81-6.81,12.25-8,23.57-.24,2.39,1.39,5.5,3.54,6.63l63.21,33.29-.42,.42,.05,6.4,2.13,2.19,8.21-4.98,.03-.02,.24-.16h0c.86-.51,1.38-1.55,1.27-3.04Z"/><path class="cls-4" d="M46.12,58.7c-4.56-2.07-8.8-5.21-12.51-9.02-.1,.04-1.63,.47-1.63,.47l-8.67,2.98-2.99,1.31,1.51,9.73,16.16,6.09,14.58-4.18,8.68-5.21c-4.53,.95-9.7,.31-15.13-2.17Z"/><path class="cls-2" d="M23.32,53.13l10.44-3.61s-4.94-.62-13.48,2.76c-5.82,2.31-10.31,6.71-10.31,6.71l13.35-5.86Z"/><path class="cls-3" d="M69.56,35.69c-.09,7.18-2.78,12.53-7.03,15.35-.19,.14-.4,.26-.59,.38l-.17,.12c-.96,.77-2.06,1.56-3.3,2.34-1.78,1.12-3.48,1.99-5,2.65-.23-1.09-.45-2.17-.68-3.26-2.1-.21-4.32-.8-6.61-1.82-12.09-5.36-21.46-20.42-21.36-33.85,.02-3.26,.61-6.18,1.65-8.66l-.12,.02c-.69-.75-1.37-1.49-2.06-2.22,2.27-1.77,4.82-3.12,7.43-4.46,4.2-2.15,9.09-3.28,14.9-1.16,12.61,4.6,23.08,20.14,22.94,34.56Z"/><g><path class="cls-5" d="M60.89,40.89c-.15,14.38-10.82,21.34-23.38,15.77-12.08-5.36-21.46-20.42-21.36-33.84,.1-13.44,9.68-20.9,21.8-16.49,12.61,4.59,23.08,20.15,22.93,34.56Z"/><path class="cls-5" d="M52.57,66.08c-4.52,.95-9.7,.3-15.12-2.17-5.24-2.38-10.06-6.18-14.13-10.78C13.78,53.89,2.61,60.14,.03,84.81c-.25,2.41,1.38,5.49,3.53,6.63l70.17,36.95c2.65,1.4,4.78,.09,4.57-2.84-.85-11.7-5.13-40.03-25.72-59.47Z"/></g><circle class="cls-1" cx="88.58" cy="28.84" r="24.11"/><path class="cls-5" d="M84.8,39.25s-.09,0-.13,0c-.86-.04-1.66-.43-2.21-1.09l-6.11-7.29c-1.09-1.29-.92-3.22,.38-4.31,1.29-1.09,3.22-.92,4.3,.38l3.96,4.73,11.28-11.32c1.19-1.2,3.13-1.2,4.32,0,1.19,1.19,1.2,3.13,0,4.32l-13.64,13.68c-.57,.58-1.35,.9-2.16,.9Z"/></svg>