<?xml version="1.0" encoding="UTF-8"?><svg id="Capa_13" xmlns="http://www.w3.org/2000/svg" viewBox="0 0 99.77 127.32"><defs><style>.cls-1{fill:#fff;}.cls-2{fill:#102638;}.cls-3{fill:#4fc666;}.cls-4{fill:#4a5;}.cls-5{fill:#57fa7b;}</style></defs><g><path class="cls-3" d="M83.83,126.61L19.73,91.14c-3.67-2.03-6.65-7.49-6.65-12.21V10.9c0-4.82,3.02-6.96,6.73-4.8L84.7,43.93c3.54,2.06,6.36,7.51,6.3,12.16l-.76,65.76c-.05,4.56-2.92,6.68-6.42,4.75Z"/><polygon class="cls-1" points="85.24 120.83 17.4 83.14 17.43 28.46 85.81 67.76 85.24 120.83"/><path class="cls-5" d="M27.61,22.99c0,2.08-1.31,3.02-2.92,2.09-1.61-.93-2.92-3.38-2.91-5.47,0-2.09,1.31-3.03,2.93-2.09,1.61,.93,2.91,3.38,2.91,5.47Z"/><path class="cls-4" d="M36.2,27.96c0,2.08-1.31,3.01-2.91,2.09s-2.9-3.36-2.89-5.44,1.31-3.02,2.91-2.09c1.6,.93,2.89,3.37,2.88,5.44Z"/><path class="cls-2" d="M44.72,32.89c0,2.07-1.3,3-2.89,2.08-1.59-.92-2.88-3.35-2.87-5.42,0-2.08,1.31-3.01,2.9-2.09,1.59,.92,2.87,3.35,2.86,5.42Z"/><path class="cls-2" d="M78.48,56.14l-13.83-7.98c-1.52-.87-2.73-3.2-2.72-5.18h0c.01-1.99,1.26-2.89,2.77-2.01l13.84,8.03c1.5,.87,2.7,3.17,2.68,5.15h0c-.02,1.97-1.25,2.87-2.75,2Z"/><path class="cls-4" d="M93.47,38.66L28.59,.85c-1.74-1.02-3.33-1.09-4.53-.37L15.99,5.34l-.18,.11,.04,.03c1.11-.4,2.48-.23,3.95,.63L84.7,43.93c3.54,2.06,6.36,7.51,6.3,12.16l-.76,65.76c-.03,2.44-.88,4.15-2.18,4.94v.04s9.03-5.37,9.03-5.37l-.02-.05c1.18-.86,1.91-2.53,1.93-4.83l.75-65.77c.07-4.65-2.76-10.09-6.3-12.16Z"/><g><path class="cls-2" d="M37,74.51c0,.45-.02,.8-.05,1.04-.03,.24-.07,.4-.14,.47-.06,.08-.14,.08-.23,.02-.09-.06-.2-.18-.35-.34l-10.88-13.14c-.13-.17-.23-.43-.29-.78-.06-.35-.09-.83-.09-1.46,0-.32,.01-.59,.03-.82,.02-.23,.04-.41,.07-.55,.03-.14,.07-.24,.12-.3,.05-.06,.11-.1,.18-.11l10.92-.81c.28-.02,.47,.13,.58,.43,.11,.3,.17,.82,.17,1.56,0,.5-.01,.9-.03,1.18-.02,.29-.04,.5-.08,.65-.04,.15-.09,.24-.16,.28s-.16,.06-.27,.07l-8.2,.32,8.01,9.33c.14,.17,.26,.32,.35,.45,.09,.14,.16,.31,.2,.51,.05,.2,.08,.46,.1,.77,.02,.31,.03,.72,.02,1.23Z"/><path class="cls-2" d="M47.62,88.37c-.05,.13-.11,.22-.18,.28-.08,.05-.18,.07-.32,.06-.14-.02-.3-.06-.51-.15-.2-.08-.46-.21-.76-.38-.38-.21-.7-.41-.94-.6-.24-.19-.43-.36-.55-.53-.13-.17-.2-.33-.22-.49-.02-.16,0-.33,.06-.5l8.56-25.86c.04-.14,.1-.24,.17-.3,.08-.06,.18-.08,.31-.07,.13,.01,.3,.07,.51,.16,.21,.09,.47,.22,.77,.39,.39,.22,.71,.43,.95,.61,.24,.19,.42,.36,.54,.53,.12,.17,.19,.33,.21,.49,.02,.16,0,.33-.05,.51l-8.54,25.85Z"/><path class="cls-2" d="M75.23,88.76c0,.31-.01,.58-.04,.79-.02,.22-.05,.4-.08,.53-.03,.14-.08,.24-.13,.3-.05,.06-.11,.09-.17,.09l-10.67,.88c-.13,.01-.24-.01-.33-.08-.09-.06-.17-.17-.23-.33-.06-.15-.1-.36-.12-.6-.02-.25-.03-.55-.03-.91,0-.49,.01-.88,.03-1.16,.02-.28,.04-.5,.08-.64,.04-.15,.09-.24,.16-.28,.07-.04,.15-.06,.27-.06l8.02-.37-7.79-9.17c-.15-.17-.27-.32-.35-.46-.09-.13-.15-.3-.2-.5-.05-.2-.07-.45-.08-.76-.01-.3-.02-.71-.01-1.22,0-.45,.02-.79,.04-1.03,.03-.24,.07-.4,.13-.47,.06-.07,.14-.08,.23-.01,.09,.06,.2,.18,.33,.33l10.58,12.96c.12,.14,.21,.39,.28,.74,.07,.35,.1,.83,.09,1.45Z"/></g></g><g><path class="cls-5" d="M25.42,121.72H4.69c-3.6,0-5.85-3.9-4.05-7.02l10.36-17.95,10.36-17.95c1.8-3.12,6.3-3.12,8.11,0l10.36,17.95,10.36,17.95c1.8,3.12-.45,7.02-4.05,7.02H25.42Z"/><path class="cls-1" d="M28.1,113.16c0,.55-.04,1.01-.13,1.39-.09,.38-.24,.68-.46,.9-.22,.23-.51,.39-.87,.49s-.82,.15-1.37,.15-1.01-.05-1.38-.15c-.37-.1-.66-.26-.87-.49-.21-.23-.37-.53-.45-.9-.09-.37-.13-.84-.13-1.39s.04-1.03,.13-1.42c.09-.38,.24-.69,.45-.92,.21-.23,.51-.4,.87-.5,.37-.1,.83-.15,1.38-.15s1,.05,1.37,.15,.65,.27,.87,.5c.22,.23,.38,.54,.46,.92,.09,.38,.13,.85,.13,1.42Zm-.62-5.88c-.01,.13-.05,.25-.12,.36-.07,.11-.18,.2-.35,.27-.17,.07-.4,.13-.68,.17-.29,.04-.64,.06-1.06,.06s-.78-.02-1.06-.06-.51-.1-.67-.17c-.17-.07-.28-.16-.35-.27-.07-.11-.11-.23-.12-.36l-.52-18.24c0-.17,.04-.33,.12-.46,.08-.13,.22-.24,.43-.33,.21-.09,.49-.15,.84-.19,.36-.04,.8-.06,1.34-.06s.98,.02,1.33,.07c.35,.05,.63,.11,.83,.2,.21,.09,.36,.19,.44,.32,.09,.13,.13,.28,.13,.45l-.52,18.24Z"/></g></svg>