<?xml version="1.0" encoding="UTF-8"?><svg id="Capa_13" xmlns="http://www.w3.org/2000/svg" viewBox="0 0 201.71 50.69"><defs><style>.cls-1{fill:#fff;}.cls-2{fill:#57fa7b;opacity:.6;}</style></defs><rect class="cls-2" y="0" width="201.71" height="50.69" rx="21" ry="21"/><g><path class="cls-1" d="M76.74,34.33c-1.31,0-2.53-.21-3.65-.64s-2.1-1.04-2.92-1.83c-.83-.79-1.47-1.72-1.93-2.79-.46-1.07-.69-2.24-.69-3.51s.23-2.45,.69-3.52c.46-1.07,1.11-2,1.94-2.79,.83-.79,1.81-1.4,2.92-1.83,1.12-.43,2.33-.64,3.66-.64,1.47,0,2.8,.25,3.99,.76,1.19,.51,2.19,1.26,2.99,2.24l-2.52,2.33c-.58-.66-1.23-1.16-1.94-1.49-.71-.33-1.49-.5-2.33-.5-.79,0-1.52,.13-2.18,.39-.66,.26-1.24,.63-1.72,1.12-.49,.48-.86,1.06-1.13,1.72-.27,.66-.4,1.4-.4,2.21s.13,1.54,.4,2.21c.27,.66,.64,1.24,1.13,1.72,.49,.48,1.06,.86,1.72,1.12,.66,.26,1.39,.39,2.18,.39,.84,0,1.62-.17,2.33-.5,.71-.33,1.36-.84,1.94-1.52l2.52,2.33c-.81,.99-1.81,1.74-2.99,2.25-1.19,.52-2.53,.78-4.01,.78Z"/><path class="cls-1" d="M90,34.04v-13.77h-5.43v-3.2h14.79v3.2h-5.43v13.77h-3.93Z"/><path class="cls-1" d="M105.66,34.04h-3.93V17.07h12.83v3.15h-8.9v13.82Zm-.29-9.33h8.15v3.15h-8.15v-3.15Z"/><path class="cls-1" d="M117.15,24.1l1.6-5.82,.53,2.21c-.7,0-1.26-.21-1.71-.62-.45-.41-.67-.97-.67-1.69s.23-1.26,.68-1.68c.45-.43,1.01-.64,1.67-.64s1.24,.21,1.67,.64c.44,.43,.66,.99,.66,1.68,0,.21-.01,.42-.04,.62-.02,.2-.08,.44-.17,.72-.09,.27-.23,.64-.42,1.09l-1.41,3.49h-2.4Z"/><path class="cls-1" d="M128.38,34.23c-1.12,0-2.19-.13-3.21-.4-1.03-.27-1.84-.6-2.44-1.01l1.26-2.72c.6,.37,1.3,.67,2.12,.91s1.62,.35,2.41,.35c.87,0,1.49-.1,1.86-.32,.36-.21,.54-.5,.54-.87,0-.31-.14-.54-.42-.69-.28-.15-.66-.27-1.13-.35s-.98-.16-1.54-.24-1.12-.19-1.69-.33c-.57-.14-1.08-.34-1.55-.62-.47-.27-.84-.65-1.13-1.12-.28-.47-.42-1.07-.42-1.82,0-.82,.24-1.55,.72-2.18,.48-.63,1.17-1.13,2.07-1.49s1.99-.55,3.25-.55c.89,0,1.79,.1,2.72,.29,.92,.19,1.69,.48,2.3,.85l-1.26,2.69c-.63-.37-1.26-.63-1.9-.76-.64-.14-1.26-.21-1.86-.21-.84,0-1.45,.11-1.84,.34-.39,.23-.58,.52-.58,.87,0,.32,.14,.57,.42,.73,.28,.16,.66,.29,1.13,.39,.47,.1,.98,.18,1.54,.25,.56,.07,1.12,.18,1.68,.33,.57,.15,1.08,.35,1.54,.62s.84,.63,1.13,1.09c.29,.46,.44,1.06,.44,1.81,0,.81-.24,1.52-.73,2.15-.49,.62-1.18,1.11-2.1,1.47-.91,.36-2.02,.53-3.33,.53Z"/></g></svg>