<?xml version="1.0" encoding="UTF-8"?><svg id="Capa_13" xmlns="http://www.w3.org/2000/svg" viewBox="0 0 86.12 106.8"><defs><style>.cls-1{fill:#fff;}.cls-2{fill:#102638;}.cls-3{fill:#4fc666;}.cls-4{fill:#4a5;}.cls-5{fill:#57fa7b;}</style></defs><g><path class="cls-3" d="M85.2,40.53c-27.83-5.77-37.1-25.57-37.1-25.57C31.38,20.31,11.16,3.09,11.16,3.09L.11,8.56s1.92,1.96,5.09,4.38c6.35,4.84,17.72,11.51,28.87,7.94,0,0,9.28,19.81,37.1,25.57,0,0,.42,22.73-15.13,41.78-5.92,7.25-11.51,11.87-15.67,14.68-4.24,2.88-6.97,3.88-6.97,3.88l5.34-.76s17.13-7.35,29.09-22c15.54-19.05,17.35-43.51,17.35-43.51Z"/><path class="cls-5" d="M56.06,88.24c-5.92,7.25-11.52,11.87-15.67,14.68-4.24,2.88-6.97,3.88-6.97,3.88C33.42,106.8-2.23,70.73,.11,8.55c0,0,1.93,1.97,5.09,4.39,6.34,4.83,17.72,11.5,28.87,7.94,0,0,9.27,19.8,37.1,25.57,0,0,.42,22.73-15.11,41.78Z"/><path class="cls-4" d="M34.54,61.11c4.76,.16,4.76-5.87,1.9-10.32-2.86-4.44-9.52-6.35-11.59-1.75-2.06,4.6,3.17,8.73,3.17,8.73l-6.87,16.73,17.29,8.64-3.91-22.04Z"/><path class="cls-2" d="M34.54,61.11c4.76,.16,4.76-5.87,1.9-10.32-1.77-2.76-5.01-4.54-7.71-4.39-.24,.3-.46,.63-.63,1.02-2.06,4.6,3.17,8.73,3.17,8.73l-6.87,16.73,13.41,6.71-3.28-18.48Z"/><path class="cls-4" d="M34.07,20.88l14.02-5.92C31.38,20.31,11.16,3.09,11.16,3.09L.11,8.56s1.92,1.96,5.09,4.38c6.35,4.84,17.72,11.51,28.87,7.94,0,0,0,0,0,0Z"/></g><path class="cls-1" d="M73.76,24.93l6.69,9.18c.44,.6,.28,1.44-.35,1.84l-4.05,2.58c-.6,.38-1.39,.2-1.77-.4l-6.38-10.06-6.89,7.13c-.75,.77-2.06,.34-2.19-.73L54.57,1.45c-.14-1.09,1.07-1.84,1.99-1.23l28.99,19.49c.92,.62,.68,2.03-.4,2.31l-11.39,2.91Z"/></svg>