<?xml version="1.0" encoding="UTF-8"?><svg id="Capa_13" xmlns="http://www.w3.org/2000/svg" viewBox="0 0 119.08 121.41"><defs><style>.cls-1{fill:#fff;}.cls-2{fill:#102638;}.cls-3{fill:#4fc666;}.cls-4{fill:none;}.cls-5{fill:#4a5;}.cls-6{fill:#57fa7b;}</style></defs><g><path class="cls-4" d="M46.3,28.4c-2.25-4.94-6.44-11.4-12.11-14.17-1.15-.56-2.2-.87-3.17-.99-1.11,1.68-1.66,3.72-1.62,5.77l.28,13.73,18.31,10.6,.1-5.15c.06-3.01-.54-7.05-1.79-9.8Z"/><path class="cls-5" d="M72.97,108.42l-.04-47.55c0-1.91-1.02-3.68-2.67-4.64l-7.24-4.19-.07,3.23-.03-.02-7.36,3.66-7.77-5.05,.21-10.52-18.31-10.6,.05,2.72h-.01s-7.38,3.64-7.38,3.64l-8.35-4.66,.08-8.75c-.23,.14-.44,.3-.63,.5L1.65,33.37l.05,.04c.98-.67,2.3-.84,3.47-.16l52.87,30.61c1.65,.96,2.67,2.72,2.67,4.64l.04,47.55c0,2.14-1.19,3.85-2.84,4.73v.05s12.28-7.7,12.28-7.7c1.61-.89,2.78-2.59,2.78-4.7Z"/><path class="cls-6" d="M60.75,116.04l-.04-47.55c0-1.91-1.02-3.68-2.67-4.64L5.17,33.25c-1.17-.68-2.49-.52-3.47,.16-.83,.57-1.41,1.5-1.42,2.64L0,85.51c-.01,1.88,.96,3.63,2.57,4.61l50.03,30.51c1.75,1.07,3.74,.99,5.31,.15,1.64-.88,2.84-2.59,2.84-4.73Z"/><path class="cls-3" d="M31.02,13.24c-2.73-.36-4.78,.77-6.23,2.21-1.9,1.88-2.84,4.53-2.78,7.2l.33,16.45,7.38-3.65h.01s-.05-2.71-.05-2.71l-.28-13.73c-.04-2.05,.51-4.08,1.62-5.77Z"/><path class="cls-3" d="M31.21,3.79c12.21,1.77,21.55,13.95,24.45,27.29,.34,1.54,.46,3.13,.43,4.71l-.53,23.13,7.36-3.66,.03,.02,.07-3.23,.46-19.9c.04-1.58-.09-3.16-.43-4.71C60.16,14.1,50.82,1.92,38.61,.15c-3.17-.46-5.89,.16-8.18,1.26-4.89,1.85-8.39,4.11-9.01,4.53,2.58-1.64,5.84-2.72,9.79-2.15Z"/><path class="cls-6" d="M13.98,34.44l8.35,4.66-.33-16.45c-.05-2.67,.88-5.32,2.78-7.2,1.45-1.43,3.5-2.56,6.23-2.21,.97,.13,2.02,.43,3.17,.99,5.67,2.77,9.86,9.23,12.11,14.17,1.25,2.74,1.85,6.78,1.79,9.8l-.1,5.15-.21,10.52,7.77,5.05,.53-23.13c.04-1.58-.09-3.16-.43-4.71-2.9-13.34-12.24-25.52-24.45-27.29-3.95-.57-7.21,.51-9.79,2.15-.91,.58-1.74,1.23-2.48,1.9-3.07,2.79-4.77,6.78-4.81,10.93l-.07,6.92-.08,8.75Z"/><path class="cls-5" d="M25.67,72.77s-5.14-4.05-3.12-8.57c2.03-4.52,8.57-2.65,11.38,1.71,2.81,4.36,2.81,10.29-1.87,10.13l2.15,22.48-11.41-7.77,2.87-17.99Z"/><path class="cls-2" d="M33.82,94.49l-1.76-18.45c4.68,.16,4.68-5.77,1.87-10.13-1.74-2.71-4.92-4.45-7.57-4.31-.23,.29-.45,.61-.62,1-2.03,4.52,3.12,8.57,3.12,8.57l-2.87,17.99,7.83,5.33Z"/></g><g><rect class="cls-1" x="40.08" y="18.64" width="76.68" height="26.77" rx="4.65" ry="4.65"/><path class="cls-6" d="M112.11,47.74H44.73c-3.84,0-6.97-3.13-6.97-6.97V23.29c0-3.84,3.13-6.97,6.97-6.97H112.11c3.84,0,6.97,3.13,6.97,6.97v17.47c0,3.84-3.13,6.97-6.97,6.97ZM44.73,20.97c-1.28,0-2.32,1.04-2.32,2.32v17.47c0,1.28,1.04,2.32,2.32,2.32H112.11c1.28,0,2.32-1.04,2.32-2.32V23.29c0-1.28-1.04-2.32-2.32-2.32H44.73Z"/><g><path class="cls-2" d="M61.97,30.08l-4.35,2.39v-.85l4.35,2.35-1.6,2.68-4.05-2.42,.46-.29,.06,4.54h-3.07l.03-4.54,.46,.29-4.05,2.42-1.57-2.68,4.35-2.35v.85l-4.35-2.39,1.57-2.68,4.05,2.45-.46,.26-.03-4.54h3.07l-.06,4.54-.46-.26,4.05-2.45,1.6,2.68Z"/><path class="cls-2" d="M77.16,30.08l-4.35,2.39v-.85l4.35,2.35-1.6,2.68-4.05-2.42,.46-.29,.06,4.54h-3.07l.03-4.54,.46,.29-4.05,2.42-1.57-2.68,4.35-2.35v.85l-4.35-2.39,1.57-2.68,4.05,2.45-.46,.26-.03-4.54h3.07l-.06,4.54-.46-.26,4.05-2.45,1.6,2.68Z"/><path class="cls-2" d="M92.35,30.08l-4.35,2.39v-.85l4.35,2.35-1.6,2.68-4.05-2.42,.46-.29,.06,4.54h-3.07l.03-4.54,.46,.29-4.05,2.42-1.57-2.68,4.35-2.35v.85l-4.35-2.39,1.57-2.68,4.05,2.45-.46,.26-.03-4.54h3.07l-.06,4.54-.46-.26,4.05-2.45,1.6,2.68Z"/><path class="cls-2" d="M107.55,30.08l-4.35,2.39v-.85l4.35,2.35-1.6,2.68-4.05-2.42,.46-.29,.06,4.54h-3.07l.03-4.54,.46,.29-4.05,2.42-1.57-2.68,4.35-2.35v.85l-4.35-2.39,1.57-2.68,4.05,2.45-.46,.26-.03-4.54h3.07l-.06,4.54-.46-.26,4.05-2.45,1.6,2.68Z"/></g></g></svg>