<?xml version="1.0" encoding="UTF-8"?><svg id="Capa_13" xmlns="http://www.w3.org/2000/svg" viewBox="0 0 57.74 57.73"><defs><style>.cls-1{fill:#57fa7b;}</style></defs><path class="cls-1" d="M21.75,51.25c0,1.81,.06,3.46-.02,5.09-.05,1.16-1.03,1.66-2.32,1.2-3.94-1.4-7.42-3.55-10.4-6.48C-3.87,38.43-2.8,17.38,11.29,6.12,23.52-3.65,41.4-1.49,51.26,10.95c12.5,15.78,6.17,39.35-12.48,46.46-1.99,.76-2.8,.23-2.79-1.89,0-2.47,.06-4.94,.05-7.42,0-1.9-.38-3.71-1.76-5.36,1.02-.22,1.91-.4,2.81-.6,6.23-1.41,9.59-5.39,10.09-11.73,.28-3.58-.12-6.91-2.44-9.83-.24-.3-.24-.91-.15-1.32,.46-2.04,.3-4.02-.23-6.04-.26-1-.84-1.23-1.59-.94-1.93,.74-3.84,1.54-5.69,2.45-.69,.34-1.24,.56-2.03,.36-4.16-1.06-8.33-.94-12.5-.04-.54,.12-1.22-.08-1.76-.3-1.83-.76-3.61-1.63-5.44-2.38-1.08-.45-1.95-.1-2.03,1.15-.13,1.88-.09,3.78-.18,5.67-.03,.59-.05,1.31-.38,1.73-3.94,5-2.42,14.92,1.76,18.35,2.19,1.79,4.69,2.73,7.43,3.18,.47,.08,.93,.17,1.28,.24-.47,1.2-.88,2.37-1.39,3.49-.15,.33-.53,.65-.88,.79-2.93,1.15-5.6,.29-7.33-2.41-.96-1.5-2.05-2.83-3.87-3.25-.65-.15-1.35-.02-2.03-.02-.04,.15-.09,.3-.13,.45,.34,.36,.62,.79,1.01,1.05,1.46,.98,2.56,2.29,3.1,3.91,1.25,3.76,4.68,5.38,8.89,4.75,.3-.04,.59-.09,1.16-.18Z"/></svg>