<?xml version="1.0" encoding="UTF-8"?><svg id="Capa_13" xmlns="http://www.w3.org/2000/svg" viewBox="0 0 55.71 55.65"><defs><style>.cls-1{fill:#57fa7b;}</style></defs><path class="cls-1" d="M27.89,0c5.89,0,11.79,0,17.68,0,2.24,0,4.23,.75,6.01,2.04,2.18,1.57,3.39,3.79,3.99,6.35,.11,.46,.13,.96,.13,1.43,0,11.96,0,23.93,0,35.89,0,2.2-.81,4.13-2.09,5.88-1.56,2.12-3.73,3.31-6.25,3.91-.45,.11-.92,.14-1.38,.14-11.94,0-23.87,0-35.81,0-2.27,0-4.27-.75-6.07-2.06-2.16-1.57-3.36-3.77-3.96-6.32-.11-.46-.13-.96-.13-1.43C.01,34.05,.03,22.28,0,10.5c0-2.06,.52-3.92,1.58-5.66C3.15,2.23,5.55,.81,8.44,.13c.5-.12,1.03-.12,1.55-.12C15.95,0,21.92,0,27.89,0Zm-6.51,21.45v25.67c2.88,0,5.73,0,8.63,0v-.69c0-4.81,0-9.61,0-14.42,0-.82,.21-1.59,.67-2.3,.81-1.26,1.88-2.11,3.41-2.32,1.2-.16,2.99,.39,3.62,1.63,.54,1.07,.81,2.18,.81,3.35,.01,4.69,0,9.39,0,14.08v.67c2.92,0,5.77,0,8.68,0v-.69c0-3.95,.02-7.89-.01-11.84-.01-1.54-.14-3.07-.22-4.61-.09-1.73-.61-3.33-1.49-4.82-.87-1.47-2.02-2.63-3.59-3.33-2.06-.92-4.2-1.25-6.42-.74-1.77,.41-3.3,1.23-4.43,2.7-.33,.43-.65,.86-1.05,1.38v-3.73c-2.9,0-5.74,0-8.62,0Zm-4.27,25.67c0-8.56,0-17.1,0-25.67-2.89,0-5.68,0-8.45,0,0,8.56,0,17.1,0,25.67h8.45Zm-4.19-29.16c.53-.14,1.33-.21,2-.54,1.6-.76,2.65-2.33,2.4-4.35-.16-1.26-.8-2.19-1.73-2.97-1.41-1.17-4.77-.97-6.02,.23-1.15,1.11-1.68,2.38-1.44,3.86,.42,2.62,2.29,3.59,4.8,3.77Z"/></svg>