<?xml version="1.0" encoding="UTF-8"?><svg id="Capa_13" xmlns="http://www.w3.org/2000/svg" viewBox="0 0 201.71 50.69"><defs><style>.cls-1{fill:#fff;}.cls-2{opacity:.6;}.cls-3{fill:#57fa7b;}</style></defs><g class="cls-2"><rect class="cls-3" y="0" width="201.71" height="50.69" rx="21" ry="21"/></g><g><g><path class="cls-1" d="M79.17,33.55V16.58h3.93v13.77h8.51v3.2h-12.44Z"/><path class="cls-1" d="M94.08,33.55V16.58h3.93v16.97h-3.93Z"/><path class="cls-1" d="M102.29,33.55V16.58h3.25l10.01,12.22h-1.58v-12.22h3.88v16.97h-3.22l-10.04-12.22h1.58v12.22h-3.88Z"/><path class="cls-1" d="M129.69,33.85c-2.41,0-4.29-.67-5.65-2.01-1.36-1.34-2.04-3.26-2.04-5.75v-9.5h3.93v9.36c0,1.62,.33,2.78,.99,3.49,.66,.71,1.59,1.07,2.79,1.07s2.12-.36,2.79-1.07c.66-.71,.99-1.87,.99-3.49v-9.36h3.88v9.5c0,2.49-.68,4.41-2.04,5.75-1.36,1.34-3.24,2.01-5.65,2.01Z"/><path class="cls-1" d="M139.34,33.55l7.3-10.06v2.86l-6.98-9.77h4.46l4.83,6.81-1.87,.02,4.75-6.84h4.27l-6.93,9.6v-2.81l7.35,10.18h-4.53l-4.99-7.2h1.79l-4.92,7.2h-4.51Z"/></g><g><path class="cls-1" d="M46.09,41.33c-1.35-.53-2.69-.88-4.09-.98-1.43-.1-2.19-1.06-1.89-2.48,.16-.75,.23-1.48,.15-2.26-.13-1.37,.34-2.07,1.65-2.47,.98-.3,1.39-1.12,1.96-1.83,.06-.07,.05-.22,.04-.32-.19-2.23,.71-4.15,1.74-6.03,.68-1.25,1.5-2.4,2.41-3.49,1.51-1.82,1.88-3.96,1.64-6.25-.14-1.34-.11-2.68,.24-3.99,.5-1.88,1.77-2.91,3.64-3.26,.94-.18,1.89-.16,2.83,.04,2,.43,2.99,1.81,3.46,3.68,.3,1.22,.4,2.46,.33,3.71-.12,2.42,.64,4.47,2.34,6.23,1.33,1.38,2.26,3.05,3,4.81,.67,1.59,.83,3.23,.44,4.92-.08,.33-.06,.55,.24,.76,.47,.34,.71,.85,.82,1.42,.13,.69,.36,1.32,.88,1.83,.25,.25,.4,.58,.52,.92,.3,.87,.04,1.61-.81,1.99-1.55,.7-2.91,1.62-4.09,2.86-.71,.75-1.68,1.13-2.71,1.18-1.19,.05-2.07-.55-2.58-1.62-.16-.34-.35-.47-.72-.46-.69,.02-1.37-.1-2.05-.2-1.41-.19-2.77,.19-4.15,.41-.15,.02-.22,.14-.29,.24-.63,.96-1.59,1.18-2.63,1.15-.78-.02-1.55-.17-2.31-.54Zm5.51-3.23c2.01,.89,3.97,.77,5.91-.23,.69-.35,1.04-.85,1.2-1.61,.24-1.15,.16-2.34,.42-3.48,.17-.73,.47-1.38,1.13-1.79,.2-.13,.3-.29,.38-.52,.24-.71,.74-.99,1.47-.86,.61,.1,1.17,.35,1.71,.65,.53,.3,1,.63,1.06,1.45,.16-.6-.01-.94-.32-1.25-.37-.38-.83-.64-1.3-.86-.29-.14-.38-.33-.31-.62,.15-.61,.09-1.22-.03-1.83-.18-.87-.58-1.86-.89-2.19,.62,1.52,.76,2.47,.53,3.64-.05,.26-.06,.54-.43,.53-.34,0-.55-.15-.62-.5-.13-.64-.32-1.26-.55-1.87-.69-1.8-1.75-3.42-2.42-5.22-.36-.97-.73-1.95-1.11-2.99-.74,.72-1.68,1-2.51,1.49-1.08,.65-2.09,.52-3.04-.28-.27-.22-.52-.47-.84-.59-.15,.08-.15,.21-.16,.31-.32,2.01-1.14,3.84-1.98,5.67-.51,1.12-1.06,2.22-1.29,3.44-.12,.63-.21,1.26-.31,1.89-1.37-1.9-.65-3.73,.13-5.56-.45,.77-.78,1.58-1.03,2.41-.65,2.1-.12,3.55,1.75,4.72,.91,.57,1.71,1.25,2.39,2.09,.81,1,.68,1.79-.44,2.43,.38,.59,.7,1.23,1.52,1.51Zm-5.02-5.83c-.1-.11-.2-.22-.31-.32-.87-.75-1.63-.67-2.32,.25-.07,.09-.14,.18-.2,.27-.42,.65-1.01,1.07-1.75,1.3-1,.31-1.31,.87-1.07,1.92,.16,.71,.1,1.38-.09,2.08-.38,1.43-.02,1.89,1.28,2.03,.07,0,.15,.01,.22,.02,1.36,.13,2.68,.42,3.92,1.01,.97,.47,1.99,.6,3.04,.44,.99-.15,1.61-1.04,1.46-2-.12-.74-.41-1.39-.91-1.94-1.06-1.19-1.89-2.53-2.61-3.94-.19-.36-.41-.71-.66-1.13Zm21.32,5.08c.38-.5,.11-.94-.19-1.32-.63-.78-1.08-1.62-1.3-2.62-.18-.86-.76-1.18-1.61-1.14-.32,.02-.49,.23-.71,.39-1.45,1.03-2.97,1.07-3.49-1.03-.01-.04-.06-.08-.09-.13-.45,.29-.65,.71-.76,1.2-.26,1.11-.24,2.25-.43,3.37-.17,.98-.56,1.89-.74,2.86-.37,1.97,1.12,3.29,3.03,2.69,.7-.22,1.34-.58,1.84-1.13,1-1.12,2.22-1.92,3.57-2.54,.31-.14,.61-.29,.89-.6Zm-10.66-20.31c-.93-.58-1.97-.95-2.97-1.39-.73-.32-1.46-.14-2.1,.35-.46,.35-.9,.72-1.36,1.07-.35,.27-.49,.65-.22,.97,.72,.88,1.58,1.61,2.68,1.98,.18,.06,.42,.05,.61-.01,1.1-.35,2.12-.91,3.07-1.55,.56-.38,.61-.82,.29-1.42Zm-2.18-2.32c.16-.34,.32-.73,.77-.68,.49,.05,.6,.47,.72,.88,.12,.45-.08,.83-.18,1.23,.6,.29,.7,.25,.92-.32,.18-.46,.21-.95,.15-1.43-.11-.84-.82-1.59-1.52-1.65-.66-.05-1.31,.47-1.61,1.32-.06,.17-.11,.36-.14,.54-.07,.6,.06,.73,.69,.72,.13-.15,.1-.36,.19-.61Zm-4.58,.26c-.01,.39,.13,.73,.3,1.06,.07,.14,.15,.34,.37,.21,.17-.1,.11-.24,.06-.39-.07-.17-.13-.35-.14-.53-.03-.42-.11-.95,.42-1.07,.51-.11,.58,.4,.68,.77,.04,.15,.07,.31,.28,.27,.18-.03,.31-.11,.32-.32,0-.64-.14-1.22-.66-1.65-.4-.33-.76-.31-1.13,.07-.4,.42-.5,.94-.5,1.59Z"/><path class="cls-1" d="M53.99,19.08c-1.37,.24-3.08-.57-3.19-1.5,.22-.07,.28,.12,.39,.23,1.26,1.24,2.34,1.37,3.87,.52,.56-.31,1.07-.69,1.62-1.01-.64,.94-1.59,1.43-2.7,1.76Z"/></g></g></svg>