<?xml version="1.0" encoding="UTF-8"?><svg id="Capa_13" xmlns="http://www.w3.org/2000/svg" viewBox="0 0 201.71 50.69"><defs><style>.cls-1{fill:#fff;}.cls-2{opacity:.6;}.cls-3{fill:#57fa7b;}</style></defs><g class="cls-2"><rect class="cls-3" y="0" width="201.71" height="50.69" rx="21" ry="21"/></g><g><g><path class="cls-1" d="M79.86,34.05V17.07h3.25l10.01,12.22h-1.58v-12.22h3.88v16.97h-3.22l-10.04-12.22h1.58v12.22h-3.88Z"/><path class="cls-1" d="M99.72,34.05V17.07h3.25l7.23,11.98h-1.72l7.1-11.98h3.22l.05,16.97h-3.68l-.02-11.32h.68l-5.67,9.53h-1.77l-5.79-9.53h.82v11.32h-3.68Z"/><path class="cls-1" d="M120.91,34.05l7.56-16.97h3.88l7.59,16.97h-4.12l-6.21-14.98h1.55l-6.23,14.98h-4.02Zm3.78-3.64l1.04-2.98h8.73l1.07,2.98h-10.84Z"/><path class="cls-1" d="M141.98,34.05V17.07h7.35c1.52,0,2.83,.25,3.93,.74,1.1,.49,1.95,1.2,2.55,2.12,.6,.92,.9,2.02,.9,3.3s-.3,2.35-.9,3.27c-.6,.92-1.45,1.63-2.55,2.12-1.1,.49-2.41,.74-3.93,.74h-5.16l1.75-1.77v6.45h-3.93Zm3.93-6.01l-1.75-1.87h4.95c1.21,0,2.12-.26,2.71-.78,.6-.52,.9-1.24,.9-2.16s-.3-1.66-.9-2.18c-.6-.52-1.5-.78-2.71-.78h-4.95l1.75-1.87v9.62Z"/></g><g><path class="cls-1" d="M49.29,16.77c-1.14,0-2.22,.23-3.21,.64l.49,1.26c.84-.35,1.75-.54,2.72-.54,3.85,0,6.99,3.1,6.99,6.91s-3.13,6.91-6.99,6.91-6.99-3.1-6.99-6.91c0-.84,.16-1.64,.44-2.38l-1.25-.52c-.34,.9-.54,1.88-.54,2.9,0,4.56,3.74,8.26,8.34,8.26s8.34-3.71,8.34-8.26-3.74-8.26-8.34-8.26Z"/><path class="cls-1" d="M49.32,39.94h-.04c-3.81-.12-7.44-.93-10.79-2.41-2.68-1.18-5.19-2.78-7.45-4.77-3.86-3.38-5.67-6.69-5.75-6.83l-.34-.62,.34-.62c.08-.14,1.89-3.39,5.75-6.72,2.26-1.95,4.77-3.53,7.45-4.69,3.35-1.45,6.98-2.24,10.79-2.36h.04s.04,0,.04,0c3.92,.12,7.66,.91,11.12,2.36,2.77,1.16,5.35,2.73,7.69,4.68,3.99,3.32,5.86,6.58,5.94,6.71l.36,.64-.36,.64c-.08,.14-1.95,3.45-5.94,6.83-2.34,1.98-4.92,3.58-7.69,4.76-3.46,1.47-7.2,2.28-11.13,2.4h-.04Zm-21.38-14.62c.68,1.06,2.28,3.31,4.87,5.56,2.06,1.79,4.34,3.24,6.77,4.3,3.02,1.32,6.29,2.05,9.73,2.16,3.56-.12,6.96-.84,10.09-2.17,2.52-1.06,4.88-2.52,7.01-4.31,2.66-2.24,4.32-4.48,5.03-5.54-.71-1.05-2.36-3.24-5.02-5.44-2.13-1.77-4.49-3.19-7.01-4.24-3.13-1.3-6.53-2.02-10.09-2.13-3.46,.11-6.76,.84-9.8,2.15-2.44,1.05-4.73,2.49-6.79,4.27-2.55,2.2-4.12,4.36-4.79,5.38Z"/><path class="cls-1" d="M49.33,38.05c-3.51,0-6.81-1.35-9.29-3.81-1.21-1.2-2.16-2.59-2.82-4.14-.69-1.61-1.04-3.31-1.04-5.07s.35-3.47,1.04-5.07c.66-1.55,1.61-2.94,2.82-4.14,2.48-2.46,5.78-3.81,9.29-3.81s6.81,1.35,9.29,3.81c1.21,1.2,2.16,2.59,2.82,4.14,.69,1.61,1.04,3.31,1.04,5.07s-.35,3.47-1.04,5.07c-.66,1.55-1.61,2.94-2.82,4.14-2.48,2.46-5.78,3.81-9.29,3.81Zm0-23.45c-2.82,0-5.47,1.09-7.46,3.06-1.99,1.97-3.08,4.58-3.08,7.37s1.1,5.4,3.08,7.37c1.99,1.97,4.64,3.06,7.46,3.06s5.47-1.09,7.46-3.06c1.99-1.97,3.08-4.58,3.08-7.37s-1.1-5.4-3.08-7.37c-1.99-1.97-4.64-3.06-7.46-3.06Z"/><ellipse class="cls-1" cx="49.17" cy="25.14" rx="2.1" ry="2.08"/><rect class="cls-1" x="48.5" y="14.03" width="1.36" height="22.67"/><rect class="cls-1" x="37.84" y="24.68" width="22.67" height="1.36"/><path class="cls-1" d="M49.34,19.93c-.75,0-1.46,.16-2.11,.44l.5,1.27c.49-.22,1.04-.35,1.61-.35,2.19,0,3.97,1.76,3.97,3.92s-1.78,3.92-3.97,3.92-3.97-1.76-3.97-3.92c0-.48,.1-.93,.26-1.35l-1.25-.52c-.22,.58-.36,1.21-.36,1.87,0,2.91,2.39,5.28,5.32,5.28s5.32-2.37,5.32-5.28-2.39-5.28-5.32-5.28Z"/></g></g></svg>