<?xml version="1.0" encoding="UTF-8"?><svg id="Capa_13" xmlns="http://www.w3.org/2000/svg" viewBox="0 0 201.71 50.69"><defs><style>.cls-1{fill:#fff;}.cls-2{opacity:.6;}.cls-3{fill:#57fa7b;}</style></defs><g class="cls-2"><rect class="cls-3" x="0" y="0" width="201.71" height="50.69" rx="21" ry="21"/></g><g><path class="cls-1" d="M62.76,33.55V16.58h7.35c1.52,0,2.83,.25,3.93,.74,1.1,.49,1.95,1.2,2.55,2.12,.6,.92,.9,2.02,.9,3.3s-.3,2.35-.9,3.27c-.6,.92-1.45,1.63-2.55,2.12-1.1,.49-2.41,.74-3.93,.74h-5.16l1.75-1.77v6.45h-3.93Zm3.93-6.01l-1.75-1.87h4.95c1.21,0,2.12-.26,2.71-.78,.6-.52,.9-1.24,.9-2.16s-.3-1.66-.9-2.18c-.6-.52-1.5-.78-2.71-.78h-4.95l1.75-1.87v9.62Z"/><path class="cls-1" d="M84.75,33.55v-6.93l.9,2.38-7.47-12.41h4.17l5.72,9.53h-2.4l5.75-9.53h3.86l-7.47,12.41,.87-2.38v6.93h-3.93Z"/><path class="cls-1" d="M100.39,33.55v-13.77h-5.43v-3.2h14.79v3.2h-5.43v13.77h-3.93Z"/><path class="cls-1" d="M116.05,33.55h-3.93V16.58h3.93v16.97Zm8-6.96h-8.29v-3.32h8.29v3.32Zm-.29-10.01h3.93v16.97h-3.93V16.58Z"/><path class="cls-1" d="M140.22,33.84c-1.34,0-2.58-.22-3.72-.65-1.14-.44-2.13-1.05-2.96-1.84-.83-.79-1.48-1.72-1.94-2.79-.46-1.07-.69-2.23-.69-3.49s.23-2.42,.69-3.49c.46-1.07,1.11-2,1.95-2.79,.84-.79,1.83-1.41,2.96-1.84,1.13-.44,2.36-.65,3.69-.65s2.57,.22,3.7,.65c1.12,.44,2.1,1.05,2.93,1.84,.83,.79,1.48,1.72,1.95,2.78s.7,2.23,.7,3.5-.23,2.43-.7,3.5-1.12,2-1.95,2.79c-.83,.78-1.81,1.39-2.93,1.83-1.12,.44-2.35,.65-3.67,.65Zm-.02-3.35c.76,0,1.46-.13,2.1-.39,.64-.26,1.2-.63,1.68-1.12s.86-1.06,1.13-1.72c.27-.66,.4-1.4,.4-2.21s-.13-1.54-.4-2.21c-.27-.66-.64-1.24-1.12-1.72-.48-.49-1.04-.86-1.68-1.12-.65-.26-1.35-.39-2.11-.39s-1.46,.13-2.1,.39c-.64,.26-1.2,.63-1.69,1.12-.49,.48-.86,1.06-1.13,1.72-.27,.66-.4,1.4-.4,2.21s.13,1.52,.4,2.19c.27,.67,.64,1.25,1.12,1.73,.48,.48,1.04,.86,1.68,1.12s1.35,.39,2.11,.39Z"/><path class="cls-1" d="M152.71,33.55V16.58h3.25l10.01,12.22h-1.58v-12.22h3.88v16.97h-3.22l-10.04-12.22h1.58v12.22h-3.88Z"/></g><g><path class="cls-1" d="M31.98,29.92s0,.04-.02,.08c-.02,.25-.04,.49-.04,.72,0,.62,0,1.24,0,1.86-.76,0-1.53,0-2.29,0-.48,0-.94-.13-1.39-.27-.05-.02-.1-.05-.17-.09-.1-.05-.19-.08-.28-.12,0,0-.01,0-.02-.01-.05-.02-.08-.03-.12-.05-.15-.09-.31-.16-.45-.26-.24-.17-.47-.34-.69-.53-.16-.15-.3-.33-.43-.5-.14-.18-.26-.37-.4-.56-.01-.02-.01-.02-.02-.03,0,0,0-.01,0-.03-.01-.03-.02-.04-.03-.06,0,0,0,0,0,0,0-.02-.02-.03-.02-.04,0,0,0,0,0-.02-.04-.07-.08-.13-.12-.19-.14-.29-.27-.59-.33-.91,0-.03,0-.06-.01-.11-.03-.2-.07-.37-.1-.55,0-.03,0-.06-.01-.11,0-.03,0-.05,0-.06,0-.01,0-.03,0-.06,0-.05,0-.08-.01-.11,0-.01,0-.03,0-.06,0-.05,0-.08,0-.11,0-.76,0-1.52,0-2.28,0-.96,0-1.91,0-2.89,0-.05,0-.07,0-.09,0-.57,.17-1.1,.38-1.62,.19-.47,.48-.86,.77-1.26,.01-.01,.03-.02,.07-.04,.12-.12,.23-.23,.33-.34,0,0,.02-.01,.04-.03,.03-.03,.04-.05,.06-.07,0,0,0,0,0,0,0-.01,.01-.02,.01-.02,.28-.2,.55-.41,.85-.58,.26-.15,.54-.25,.82-.36,.14-.06,.29-.08,.46-.12,.21-.04,.39-.07,.58-.1,.22,0,.44-.02,.66-.02,3.35,0,6.69,0,10.06,0,.03,0,.03,0,.03-.02,0-.18-.02-.36-.02-.53,0-.04,.02-.09,.02-.16-.15-.02-.29-.02-.43-.02-.04,0-.08,0-.15,0-.12,0-.22,0-.32,0-.04,0-.08,0-.15,0-.12,0-.22,0-.32,0-.04,0-.08,0-.15,0-.12,0-.22,0-.32,0-.04,0-.08,0-.15,0-.12,0-.22,0-.32,0-.04,0-.08,0-.15,0-.12,0-.22,0-.32,0-.04,0-.08,0-.15,0-.12,0-.22,0-.32,0-.04,0-.08,0-.15,0-.12,0-.22,0-.32,0-.04,0-.08,0-.15,0-.12,0-.22,0-.32,0-.04,0-.08,0-.15,0-.12,0-.22,0-.32,0-.04,0-.08,0-.15,0-.12,0-.22,0-.32,0-.04,0-.08,0-.15,0-.12,0-.22,0-.32,0-.04,0-.08,0-.15,0-.12,0-.22,0-.32,0-.04,0-.08,0-.15,0-.12,0-.22,0-.32,0-.04,0-.08,0-.15,0-.27,0-.51,0-.75,0,0-.44,0-.88,0-1.32,0-.24,0-.49,0-.76,0-.04,0-.05,0-.06-.01-.5,.07-.98,.24-1.44,.05-.15,.12-.3,.18-.46,.02-.02,.02-.03,.02-.04,0,0,0,0,.01-.02,.06-.11,.12-.21,.17-.31,0,0,0,0,0,0,.02-.03,.03-.06,.04-.09,0,0,0,0,0,0,.01,0,.01-.02,.02-.03,0,0,0,0,.02-.02,.01-.02,.01-.03,.01-.04,.21-.35,.46-.67,.76-.94,.25-.23,.51-.47,.8-.65,.29-.18,.63-.3,.95-.43,.2-.08,.41-.11,.62-.18,.27-.09,.56-.07,.86-.11,.07,0,.12,0,.17,0,1.62,0,3.24,0,4.89,0,.08,0,.13,0,.17,0,.02,0,.04,0,.08,0,.02,0,.03,0,.03,0,.03,0,.06,0,.11,0,.02,0,.03,0,.03,0,1.95,.14,3.38,1.07,4.26,2.84,.02,.03,.03,.05,.03,.06,0,0,0,.02,.01,.05,.07,.2,.15,.38,.22,.56,.1,.35,.16,.7,.19,1.08,0,.02,0,.03,0,.03,0,.07,0,.14,0,.23,0,1.62,0,3.21,0,4.81,0,.03,0,.06,0,.09,0,.11,0,.21-.01,.34,0,.03,0,.03,0,.04-.03,.23-.06,.46-.1,.71-.04,.15-.08,.28-.11,.42,0,.03-.02,.06-.02,.12-.07,.17-.13,.32-.2,.46-.29,.58-.65,1.11-1.13,1.55-.8,.73-1.74,1.17-2.83,1.28-.22,.02-.43,.03-.65,.03-1.72,0-3.43-.03-5.15,.01-1.75,.04-3.19,.78-4.31,2.13-.68,.82-1.08,1.76-1.23,2.82,0,.02,0,.03,0,.03Zm3.71-14.72c.19,0,.39,.04,.57,.02,.77-.1,1.29-.84,1.18-1.63-.11-.75-.84-1.3-1.58-1.19-.68,.1-1.2,.64-1.25,1.3-.05,.7,.38,1.3,1.08,1.5Z"/><path class="cls-1" d="M40.36,32.87s0,.1,0,.17c0,.19,0,.35,0,.52,.18,0,.33,0,.49,0,2.25,0,4.49,0,6.72,0,.03,0,.06,0,.1,0,.02,.06,.05,.11,.05,.16,0,.7,0,1.39,0,2.1,0,.04,0,.07,0,.11-.02,.14-.03,.27-.05,.41,0,.02,0,.03-.01,.06-.02,.04-.04,.08-.04,.12-.06,.38-.19,.74-.35,1.09-.32,.68-.76,1.26-1.34,1.73-.94,.77-2.03,1.13-3.24,1.13-1.32,0-2.63,0-3.95,0-.72,0-1.44,.03-2.15-.14-.42-.1-.82-.24-1.19-.46-.32-.19-.62-.42-.93-.62,0,0,0,0,0,0-.05-.06-.1-.12-.15-.17-.66-.64-1.11-1.4-1.34-2.29-.03-.11-.07-.22-.1-.33,0-.01,0-.03,0-.06-.02-.3-.05-.57-.05-.84,0-1.56,0-3.12,0-4.68,0-.12,0-.25,0-.37,0-.03,0-.06,.01-.11,.05-.62,.2-1.2,.46-1.75,.08-.17,.17-.34,.26-.51,0,0,0,0,.01,0,.14-.19,.27-.37,.41-.55,.1-.13,.2-.25,.31-.37,0,0,0,0,.01,0,.03-.01,.05-.02,.07-.04,.54-.52,1.16-.89,1.87-1.12,.3-.1,.61-.15,.92-.23,.04,0,.08,0,.15,0,.34,0,.65-.02,.96-.02,1.6,0,3.2,0,4.8,0,.13,0,.26-.02,.4-.03,.01,0,.03,0,.06,0,.65-.06,1.25-.25,1.83-.51,.71-.33,1.33-.81,1.85-1.39,.02-.02,.03-.06,.05-.08,0,0,0,0,.01,0,.2-.27,.4-.53,.59-.8,.08-.12,.12-.25,.18-.38,0,0,0,0,.01,0,.04-.05,.07-.1,.09-.15,.19-.41,.34-.84,.41-1.28,.04-.29,.06-.58,.09-.87,0-.02,0-.04,0-.09,0-.04,0-.06,0-.09,0-.64,0-1.27,.01-1.93,.03-.02,.05-.03,.08-.04,.65,0,1.29,0,1.96,0,.23,.02,.44,.03,.64,.04,.01,0,.02,0,.06,.01,.59,.12,1.15,.28,1.66,.58,.08,.05,.17,.09,.25,.13,0,0,0,0,.02,.02,.03,.02,.05,.03,.07,.04,0,0,0,0,.02,.02,.17,.14,.32,.26,.48,.39,.13,.11,.26,.24,.4,.35,0,0,0,0,0,0,.14,.2,.28,.39,.42,.58,.26,.35,.44,.74,.59,1.15,.21,.57,.26,1.17,.27,1.77,0,1.52,.01,3.04,0,4.55,0,.41-.05,.83-.14,1.24-.18,.88-.61,1.63-1.23,2.27-.12,.13-.24,.26-.37,.39,0,0,0,0,0,0-.06,.04-.11,.08-.15,.12,0,0,0,0-.01,0-.2,.13-.39,.26-.58,.4,0,0-.01,0-.03,0-.08,.03-.14,.05-.2,.08-.71,.37-1.47,.53-2.26,.53-3.32,0-6.64,0-9.95,0-.04,0-.09,0-.13,0-.02,0-.03,.04-.05,.05Zm2.76,4.53s.05,.1,.07,.14c.5,.93,1.78,1.04,2.42,.18,.43-.59,.35-1.43-.21-1.92-.67-.59-1.73-.44-2.2,.39-.21,.38-.23,.78-.08,1.21Z"/></g></svg>