<?xml version="1.0" encoding="UTF-8"?><svg id="Capa_13" xmlns="http://www.w3.org/2000/svg" viewBox="0 0 201.71 50.69"><defs><style>.cls-1{fill:#fff;}.cls-2{opacity:.6;}.cls-3{fill:#57fa7b;}</style></defs><g class="cls-2"><rect class="cls-3" y="0" width="201.71" height="50.69" rx="21" ry="21"/></g><g><path class="cls-1" d="M41.37,34.33c-1.36,0-2.66-.18-3.9-.55-1.25-.36-2.25-.84-3.01-1.42l1.33-2.96c.73,.52,1.59,.94,2.58,1.27,.99,.33,2,.5,3.02,.5,.78,0,1.4-.08,1.88-.23,.48-.15,.83-.37,1.05-.64,.23-.28,.34-.59,.34-.95,0-.45-.18-.81-.53-1.08-.36-.27-.82-.49-1.41-.66s-1.22-.33-1.93-.48-1.41-.34-2.11-.57c-.7-.23-1.34-.52-1.93-.87-.58-.35-1.05-.82-1.42-1.41-.36-.58-.54-1.32-.54-2.23,0-.97,.26-1.85,.79-2.65,.52-.8,1.32-1.44,2.38-1.92,1.06-.48,2.39-.71,3.99-.71,1.07,0,2.12,.12,3.15,.38s1.95,.63,2.74,1.13l-1.21,2.98c-.79-.45-1.58-.79-2.38-1.01-.79-.22-1.57-.33-2.33-.33s-1.38,.09-1.87,.27c-.48,.18-.83,.41-1.04,.69-.21,.28-.32,.61-.32,.98,0,.44,.18,.79,.53,1.05s.82,.48,1.41,.64c.58,.16,1.22,.32,1.93,.48,.7,.16,1.41,.35,2.11,.56,.7,.21,1.35,.49,1.93,.85,.58,.36,1.05,.82,1.42,1.41s.55,1.32,.55,2.21c0,.95-.27,1.83-.8,2.62s-1.33,1.43-2.39,1.92c-1.06,.49-2.4,.73-4.01,.73Z"/><path class="cls-1" d="M51.52,34.04V17.07h3.93v16.97h-3.93Z"/><path class="cls-1" d="M63.65,30.89h9.24v3.15h-13.14V17.07h12.83v3.15h-8.92v10.67Zm-.29-6.98h8.17v3.05h-8.17v-3.05Z"/><path class="cls-1" d="M76.28,34.04V17.07h3.25l7.23,11.98h-1.72l7.1-11.98h3.22l.05,16.97h-3.68l-.02-11.32h.68l-5.67,9.53h-1.77l-5.79-9.53h.82v11.32h-3.68Z"/><path class="cls-1" d="M105.01,24.2v-2.91h9.04v2.91h-9.04Zm6.89,10.04c-1.54,0-2.73-.39-3.59-1.18s-1.29-1.95-1.29-3.5v-11.44h3.78v11.39c0,.55,.15,.97,.44,1.27s.69,.45,1.19,.45c.6,0,1.11-.16,1.53-.48l1.02,2.67c-.39,.28-.85,.48-1.39,.62-.54,.14-1.1,.21-1.68,.21Z"/><path class="cls-1" d="M123.17,34.24c-1.39,0-2.62-.29-3.7-.87s-1.92-1.38-2.55-2.39c-.62-1.01-.93-2.16-.93-3.45s.31-2.47,.93-3.48,1.47-1.8,2.55-2.38c1.08-.57,2.31-.86,3.7-.86s2.6,.29,3.69,.86c1.08,.57,1.93,1.36,2.55,2.36,.61,1,.92,2.17,.92,3.49s-.31,2.44-.92,3.45c-.61,1.01-1.46,1.81-2.55,2.39s-2.31,.87-3.69,.87Zm0-3.1c.63,0,1.2-.15,1.7-.44s.9-.71,1.19-1.25c.29-.54,.44-1.18,.44-1.93s-.15-1.41-.44-1.94c-.29-.53-.69-.95-1.19-1.24s-1.07-.44-1.7-.44-1.2,.15-1.7,.44-.9,.7-1.2,1.24c-.3,.53-.45,1.18-.45,1.94s.15,1.39,.45,1.93c.3,.54,.7,.96,1.2,1.25s1.07,.44,1.7,.44Z"/><path class="cls-1" d="M139.32,34.24c-1.39,0-2.62-.29-3.7-.87s-1.92-1.38-2.55-2.39c-.62-1.01-.93-2.16-.93-3.45s.31-2.47,.93-3.48,1.47-1.8,2.55-2.38c1.08-.57,2.31-.86,3.7-.86s2.6,.29,3.69,.86c1.08,.57,1.93,1.36,2.55,2.36,.61,1,.92,2.17,.92,3.49s-.31,2.44-.92,3.45c-.61,1.01-1.46,1.81-2.55,2.39s-2.31,.87-3.69,.87Zm0-3.1c.63,0,1.2-.15,1.7-.44s.9-.71,1.19-1.25c.29-.54,.44-1.18,.44-1.93s-.15-1.41-.44-1.94c-.29-.53-.69-.95-1.19-1.24s-1.07-.44-1.7-.44-1.2,.15-1.7,.44-.9,.7-1.2,1.24c-.3,.53-.45,1.18-.45,1.94s.15,1.39,.45,1.93c.3,.54,.7,.96,1.2,1.25s1.07,.44,1.7,.44Z"/><path class="cls-1" d="M149.26,34.04V16.05h3.78v17.99h-3.78Z"/><path class="cls-1" d="M161.21,34.24c-1.12,0-2.19-.13-3.21-.4-1.03-.27-1.84-.6-2.44-1.01l1.26-2.72c.6,.37,1.3,.67,2.12,.91s1.62,.35,2.41,.35c.87,0,1.49-.1,1.86-.32,.36-.21,.54-.5,.54-.87,0-.31-.14-.54-.42-.69-.28-.15-.66-.27-1.13-.35s-.98-.16-1.54-.24-1.12-.19-1.69-.33c-.57-.14-1.08-.34-1.55-.62-.47-.27-.84-.65-1.13-1.12-.28-.47-.42-1.07-.42-1.82,0-.82,.24-1.55,.72-2.18,.48-.63,1.17-1.13,2.07-1.49s1.99-.55,3.25-.55c.89,0,1.79,.1,2.72,.29,.92,.19,1.69,.48,2.3,.85l-1.26,2.69c-.63-.37-1.26-.63-1.9-.76-.64-.14-1.26-.21-1.86-.21-.84,0-1.45,.11-1.84,.34-.39,.23-.58,.52-.58,.87,0,.32,.14,.57,.42,.73,.28,.16,.66,.29,1.13,.39,.47,.1,.98,.18,1.54,.25,.56,.07,1.12,.18,1.68,.33,.57,.15,1.08,.35,1.54,.62s.84,.63,1.13,1.09c.29,.46,.44,1.06,.44,1.81,0,.81-.24,1.52-.73,2.15-.49,.62-1.18,1.11-2.1,1.47-.91,.36-2.02,.53-3.33,.53Z"/></g></svg>