<?xml version="1.0" encoding="UTF-8"?><svg id="Capa_13" xmlns="http://www.w3.org/2000/svg" viewBox="0 0 111.89 118.52"><defs><style>.cls-1{fill:#fff;}.cls-2{fill:#102638;}.cls-3{fill:#4fc666;}.cls-4{fill:#57fa7b;}</style></defs><g><path class="cls-3" d="M103.22,107.2l.87-49.19c-.02-2.27-1.23-4.35-3.2-5.49L17.01,.6c-1.49-.86-3.16-.74-4.46,.01,0,0,0,0,0,0L1.94,6.61l.03,.03c1.33-.89,3.1-1.1,4.68-.18L90.55,58.38c1.96,1.13,3.18,3.22,3.2,5.49l-.87,49.19c.02,2.3-1.13,4.19-2.79,5.32,0,0,0,.01,0,0l8.95-5.12-.02-.02c2.39-.88,4.23-3.14,4.2-6.05Z"/><path class="cls-4" d="M93.74,63.87c-.02-2.27-1.23-4.35-3.19-5.49L6.66,6.46c-1.58-.91-3.36-.71-4.68,.18-1.16,.78-1.98,2.07-1.98,3.66v54.09c0,2.29,1.23,4.41,3.22,5.55l24.63,14.11,13.01,7.45,7.1,4.07c2.23,1.28,40.09,24.12,41.98,22.89,1.73-1.12,2.95-3.05,2.93-5.41l.87-49.19Z"/><path class="cls-1" d="M87.05,106.91l.78-36.1c.06-2.67-1.11-5.56-2.6-6.44L8.36,16.89c-1.44-.85-2.63,.61-2.64,3.26l-.46,37.79c-.01,2.61,1.14,5.42,2.57,6.28l76.43,45.85c1.48,.89,2.73-.53,2.78-3.15Z"/><g><path class="cls-2" d="M27.47,49.09l-4.96,1.96,.02-1.74,4.82,7.77-1.88,4.4-4.48-7.7,.52-.29-.05,9.33-3.44-2.08,.16-9.26,.51,.91-4.6,2.21-1.69-6.54,4.93-1.89-.02,1.74-4.81-7.83,1.82-4.45,4.49,7.77-.52,.23,.08-9.37,3.46,2.07-.2,9.31-.51-.85,4.63-2.31,1.73,6.6Z"/><path class="cls-2" d="M44.67,59.43l-5.02,1.94,.03-1.75,4.84,7.8-1.91,4.4-4.5-7.72,.53-.29-.08,9.35-3.47-2.1,.19-9.28,.51,.91-4.65,2.2-1.68-6.56,4.98-1.88-.03,1.75-4.83-7.86,1.86-4.45,4.5,7.8-.53,.23,.12-9.39,3.49,2.09-.23,9.33-.51-.85,4.69-2.29,1.72,6.62Z"/><path class="cls-2" d="M62,69.84l-5.07,1.93,.04-1.75,4.86,7.83-1.95,4.4-4.52-7.75,.53-.29-.12,9.37-3.49-2.11,.22-9.3,.51,.92-4.7,2.19-1.68-6.57,5.03-1.86-.03,1.75-4.85-7.89,1.89-4.46,4.52,7.83-.53,.23,.15-9.41,3.51,2.1-.27,9.34-.51-.85,4.74-2.28,1.71,6.64Z"/><path class="cls-2" d="M79.46,80.33l-5.13,1.92,.04-1.75,4.88,7.86-1.98,4.4-4.53-7.78,.54-.29-.15,9.38-3.52-2.13,.26-9.31,.51,.92-4.75,2.17-1.67-6.59,5.09-1.85-.04,1.75-4.87-7.92,1.92-4.46,4.54,7.86-.54,.22,.18-9.42,3.54,2.12-.3,9.36-.51-.86,4.79-2.27,1.71,6.65Z"/></g></g><path class="cls-4" d="M111.89,26.07V8.59c0-3.83-3.13-6.97-6.97-6.97H58.72c-3.86,0-6.97,3.13-6.97,6.97V26.07c0,3.85,3.11,6.97,6.97,6.97h46.2c3.83,0,6.97-3.11,6.97-6.97Z"/><path class="cls-1" d="M63.72,17.23c0,1.9,2.18,2.81,2.18,2.81h2.9v1.41s2.39,0,2.39,0l-.03-1.41h2.62v1.41s2.39,0,2.39,0l-.03-1.41h2.62v1.41s2.39,0,2.39,0l-.03-1.41h2.99c1.14,3.12,4.13,5.34,7.65,5.34,4.5,0,8.15-3.65,8.15-8.15s-3.65-8.15-8.15-8.15c-3.51,0-6.5,2.22-7.65,5.34h-18.21s-2.18,.91-2.18,2.81Zm29.68,0c0-1.03,.83-1.86,1.86-1.86s1.86,.83,1.86,1.86-.83,1.86-1.86,1.86-1.86-.83-1.86-1.86Z"/></svg>