<?xml version="1.0" encoding="UTF-8"?><svg id="Capa_13" xmlns="http://www.w3.org/2000/svg" viewBox="0 0 201.71 50.69"><defs><style>.cls-1{fill:#fff;}.cls-2{opacity:.6;}.cls-3{fill:#57fa7b;}</style></defs><g class="cls-2"><rect class="cls-3" y="0" width="201.71" height="50.69" rx="21" ry="21"/></g><g><path class="cls-1" d="M88.52,5.49s.04,.03,.09,.05c.1,.04,.16,.05,.21,.06,0,0,0,0,.03,.03,.08,.04,.14,.05,.2,.07,1.09,.66,2.25,1.23,3.26,1.99,1.27,.96,1.95,2.29,1.95,3.94-.01,3.12,0,6.24,0,9.36,0,3.14,.02,6.27,.03,9.41,0,2.74,.03,5.48-.02,8.22-.03,1.82-1.01,3.15-2.43,4.2-2.07,1.53-4.46,2.31-6.94,2.86-2.88,.64-5.82,.9-8.76,.83-3.99-.1-7.92-.58-11.64-2.18-1.57-.68-3.03-1.53-4.1-2.92-.66-.87-.98-1.85-.98-2.94,0-8.97,0-17.94,0-26.91,0-1.69,.82-2.96,2.08-4,1.87-1.54,4.09-2.38,6.4-2.91,1.72-.39,3.49-.59,5.24-.87,.12-.02,.23-.06,.36-.13,1.4-.04,2.8-.04,4.27-.01,.86,.05,1.63,.07,2.4,.09,.02,0,.03,.01,.11,.05,.35,.04,.65,.05,.94,.06,0,0,.04,.02,.1,.04,.28,.04,.51,.05,.74,.06,0,0,.04,.02,.1,.04,.28,.04,.5,.06,.73,.07,0,0,.04,.02,.1,.04,.21,.04,.37,.05,.52,.06,0,0,.04,.02,.1,.04,.18,.03,.31,.04,.43,.05,0,0,.04,.02,.09,.05,.18,.04,.3,.05,.43,.06,0,0,.04,.02,.09,.05,.18,.04,.3,.05,.42,.07,0,0,.04,.02,.09,.05,.17,.04,.29,.05,.41,.06,0,0,0,0,.03,.03,.12,.04,.21,.05,.3,.06,0,0,.04,.02,.09,.05,.14,.04,.23,.05,.33,.06,0,0,.04,.02,.09,.05,.14,.04,.23,.05,.31,.06,0,0,0,0,.03,.03,.11,.04,.2,.06,.29,.07,0,0,.04,.03,.09,.05,.11,.03,.17,.04,.23,.05,0,0,0-.01,.02,.02,.1,.05,.19,.07,.28,.09,0,0,.04,.03,.09,.05,.11,.03,.16,.04,.22,.05,0,0,.01-.01,.03,.02,.1,.05,.19,.07,.27,.09,0,0,0,0,.03,.03,.08,.04,.14,.05,.2,.06Zm-16.71,1.57c-.17,.03-.34,.07-.51,.1-2.03,.27-3.99,.77-5.86,1.62-.98,.45-1.92,.96-2.58,1.87-.35,.48-.37,.97-.03,1.44,.2,.28,.42,.58,.7,.75,.85,.52,1.7,1.07,2.62,1.45,3.07,1.26,6.33,1.63,9.62,1.76,2.15,.09,4.28-.08,6.41-.39,2.04-.3,4.03-.76,5.92-1.59,.99-.43,1.92-.95,2.62-1.81,.49-.6,.52-.99,.08-1.63-.61-.87-1.52-1.35-2.44-1.78-3.12-1.45-6.47-1.92-9.86-2.07-2.2-.1-4.4-.06-6.68,.3Zm17,10.1c-3.04,1.26-6.24,1.77-9.49,1.95-2.6,.15-5.2,.09-7.79-.28-2.26-.32-4.48-.79-6.6-1.65-.78-.32-1.52-.71-2.34-1.09,0,1.49,.01,2.94,0,4.39,0,.51,.14,.96,.53,1.24,.79,.57,1.58,1.2,2.46,1.61,2.91,1.35,6.04,1.81,9.21,1.97,3.62,.18,7.23-.04,10.75-1.02,1.64-.46,3.25-1,4.57-2.11,.43-.36,.92-.91,.96-1.4,.12-1.55,.05-3.11,.05-4.68-.76,.36-1.49,.71-2.29,1.08Zm-8.1,17.3c1.05-.16,2.12-.29,3.16-.5,2-.4,3.95-.99,5.7-2.09,1.03-.65,1.76-1.46,1.55-2.8-.05-.3,0-.62,0-.94,0-.91,0-1.82,0-2.77-4.5,2.47-9.34,3.12-14.29,3.12-4.94,0-9.77-.65-14.22-3.11,0,1.35,.07,2.64-.02,3.91-.07,1.01,.35,1.69,1.08,2.26,.27,.21,.56,.41,.86,.57,3.19,1.73,6.67,2.28,10.22,2.45,1.95,.09,3.91-.05,5.96-.11Zm5.46,7.63c1.4-.45,2.79-.96,3.93-1.92,.43-.36,.91-.9,.96-1.4,.13-1.35,.05-2.72,.05-4.12-4.48,2.46-9.31,3.1-14.26,3.11-4.95,0-9.77-.65-14.25-3.09,0,1.18,.05,2.34-.02,3.49-.05,.89,.31,1.51,.97,2,.5,.37,1.02,.72,1.58,.99,3.22,1.55,6.68,2.01,10.19,2.17,1.38,.06,2.77-.03,4.16-.09,2.25-.09,4.45-.46,6.69-1.14Z"/><path class="cls-1" d="M122.68,28.26c.87,0,1.7,0,2.57,0v2.35c1.01-.08,1.62-.69,2.13-1.38,2.06-2.76,1.39-6.8-1.44-8.74-1.39-.96-3.49-.98-4.97,.02-1.81,1.22-2.78,2.94-2.81,5.13-.03,1.84,.8,3.27,2.31,4.29,.39,.27,.56,.53,.54,1.01-.04,1.07-.01,2.14-.01,3.37-.79-.38-1.51-.64-2.15-1.04-2.44-1.5-4.06-3.64-4.43-6.51-.66-5.12,2.64-9.4,7.08-10.24,2.48-.47,4.83-.17,6.95,1.23,2.21,1.45,3.38,3.59,3.74,6.18,.23,1.67,.23,3.34-.37,4.93-1.09,2.86-2.99,4.91-6.07,5.69-.13,.03-.29,.28-.3,.43-.04,.58-.01,1.16-.01,1.78h-3.31c-.01-.16-.03-.32-.03-.47,0-2.5,0-4.99,0-7.49,0-.41,.1-.6,.58-.54Z"/><path class="cls-1" d="M102.05,32.71c0-.68,0-1.31,0-1.96,1.41,.05,2.76,.13,4.1,.13,.71,0,1.44-.07,2.13-.23,.87-.19,1.07-.77,.46-1.4-.89-.91-1.87-1.74-2.84-2.58-1.41-1.23-2.8-2.47-3.54-4.25-.34-.82-.51-1.67-.49-2.56,.02-1.06,.51-1.83,1.38-2.39,1.02-.67,2.17-.87,3.36-.88,1.65,0,3.31,0,4.96-.01,.45,0,.57,.16,.55,.58-.03,.77-.03,1.55,0,2.32,.01,.42-.13,.48-.52,.45-1.62-.11-3.25-.36-4.88,.03-.2,.05-.4,.12-.59,.21-.64,.3-.78,.87-.26,1.34,.93,.85,1.95,1.61,2.89,2.45,.98,.87,1.99,1.74,2.85,2.72,.94,1.06,1.37,2.36,1.1,3.81-.33,1.77-1.53,2.8-3.13,3.38-.65,.24-1.36,.36-2.05,.38-1.71,.05-3.41,.02-5.12,.01-.1,0-.2-.02-.37-.04,0-.51,0-.99,0-1.53Z"/><path class="cls-1" d="M137.8,23.75c0,1.53,0,3,0,4.48,0,1.24,.79,2.06,2.04,2.14,.8,.05,1.61,.1,2.45,.16v3.67c-.17,.01-.36,.03-.54,.03-1.32,0-2.64,0-3.96,0-1.83,0-3.3-1.19-3.64-2.99-.07-.37-.11-.76-.11-1.14,0-4.31,0-8.61,0-12.92v-.54h3.75c0,2.37,0,4.72,0,7.12Z"/></g></svg>