<?xml version="1.0" encoding="UTF-8"?><svg id="Capa_13" xmlns="http://www.w3.org/2000/svg" viewBox="0 0 50.73 51.19"><defs><style>.cls-1{fill:#57fa7b;}</style></defs><path class="cls-1" d="M3.01,9.79c-.21,.23-.41,.48-.59,.74C.77,11.99-.54,15.22,.23,19.2c3.31,17.23,17.83,30.36,35.3,31.93,.38,.03,.75,.05,1.12,.05,2.01,0,3.9-.49,5.41-1.42,.73-.42,1.38-.95,1.93-1.56l1.5-1.66c2.93-3.24,2.67-8.25-.56-11.18l-2.53-2.29c-1.46-1.32-3.34-2.05-5.31-2.05-2.23,0-4.37,.95-5.87,2.61l-1.5,1.66c-.59,.65-1.06,1.38-1.4,2.17-5.98-2.52-10.89-7.01-13.93-12.75,1.1-.45,2.09-1.14,2.89-2.03l1.5-1.66c1.42-1.57,2.14-3.6,2.03-5.71-.11-2.11-1.03-4.05-2.6-5.47l-2.53-2.29c-1.46-1.32-3.34-2.05-5.31-2.05-2.24,0-4.38,.95-5.87,2.6l-1.5,1.66Zm3.01-.3c1.11-1.23,2.7-1.93,4.36-1.93,1.46,0,2.86,.54,3.94,1.52l2.53,2.29c1.17,1.05,1.85,2.5,1.93,4.07,.08,1.57-.46,3.08-1.51,4.24l-1.5,1.66s0,0,0,0c-.72,.8-1.64,1.38-2.66,1.69l-.46,.14c-.29,.09-.52,.29-.64,.57-.12,.28-.11,.59,.02,.86l.21,.43c3.32,6.67,8.97,11.85,15.9,14.59l.39,.16c.26,.1,.55,.09,.8-.03,.25-.12,.45-.33,.53-.6l.13-.4c.26-.77,.67-1.47,1.21-2.07l1.5-1.66c1.11-1.23,2.7-1.94,4.36-1.94,1.46,0,2.86,.54,3.94,1.52l2.53,2.29c2.4,2.17,2.59,5.9,.42,8.31l-1.5,1.66c-.41,.45-.89,.84-1.46,1.17-1.44,.88-3.32,1.27-5.31,1.09-16.58-1.49-30.35-13.94-33.49-30.29-.66-3.43,.58-5.94,1.59-6.8,.03-.03,.06-.06,.09-.09l.07-.08s.06-.07,.08-.1c.14-.21,.3-.41,.47-.59l1.5-1.66Z"/><path class="cls-1" d="M50.73,24.17c0,1.16-.95,2.12-2.12,2.12s-2.12-.95-2.12-2.12c0-10.99-8.94-19.94-19.93-19.94-1.17,0-2.12-.95-2.12-2.12S25.39,0,26.56,0c13.32,0,24.16,10.84,24.16,24.17Z"/><path class="cls-1" d="M42.86,24.43c0,1.16-.95,2.12-2.12,2.12s-2.12-.95-2.12-2.12c0-6.8-5.53-12.33-12.32-12.33-1.17,0-2.12-.95-2.12-2.12s.95-2.12,2.12-2.12c9.13,0,16.55,7.43,16.55,16.56Z"/></svg>