<?xml version="1.0" encoding="utf-8"?>
<!-- Generator: Adobe Illustrator 24.0.2, SVG Export Plug-In . SVG Version: 6.00 Build 0)  -->
<svg version="1.1" baseProfile="tiny" id="Capa_1" xmlns="http://www.w3.org/2000/svg" xmlns:xlink="http://www.w3.org/1999/xlink"
	 x="0px" y="0px" viewBox="0 0 122.5 115.6" xml:space="preserve">
<g id="Layer_1">
	<image width="3350" height="5021" xlink:href="8710B6B1.png"  transform="matrix(1 0 0 1 -3056 -3067.4099)">
	</image>
</g>
<g id="Capa_13">
	<g>
		<g>
			<path fill="#3C8E48" d="M89.6,52.5C87.1,22.2,67.8-1.3,46.3,0.1c-2.5,0.2-4.9,0.7-7.2,1.5c-4,1.1-9.7,3.6-12.8,5
				c2.7-1.1,5.5-1.7,8.4-1.9c21.5-1.4,40.9,22.3,43.3,53c2.2,27.2-9.8,50.8-27.6,56.6c10.7-2.2,17.2-5.6,21-8.1
				C84.9,97.6,91.5,76.6,89.6,52.5L89.6,52.5z"/>
			<path fill="#4FC666" d="M78.1,57.5c-2.4-30.7-21.8-54.4-43.3-53c-2.9,0.2-5.8,0.9-8.4,1.9C9.4,13.1-1.9,36.1,0.3,62.6
				c2.4,30.2,21.3,53.7,42.4,53l0,0c0.3,0,0.6,0,0.9,0c2.4-0.2,4.7-0.6,6.9-1.4C68.3,108.3,80.2,84.8,78.1,57.5L78.1,57.5z M7,62.5
				c-2.1-25.9,10.3-47.9,27.6-49s33,19,35.1,44.9c2.1,25.9-10.3,47.9-27.6,49C24.7,108.5,9,88.4,7,62.5z"/>
			
				<ellipse transform="matrix(0.9959 -9.098018e-02 9.098018e-02 0.9959 -5.3404 3.7352)" fill="#57FA7B" cx="38.3" cy="60.4" rx="31.4" ry="47.1"/>
			<g>
				<path fill="#102638" d="M14.4,54.8c-0.6,0-1-0.4-1-1c0-0.4-0.3-10.1,6.4-22.8c7-13.2,15.1-11.3,15.4-11.2
					c0.5,0.1,0.9,0.7,0.7,1.3s-0.7,0.9-1.2,0.7c-0.3-0.1-7-1.5-13.1,10.1c-6.4,12.2-6.2,21.7-6.2,21.8C15.5,54.3,15,54.8,14.4,54.8
					C14.5,54.8,14.5,54.8,14.4,54.8z"/>
				<path fill="#102638" d="M63.3,81.8c0,0-0.1,0-0.1,0c-0.6-0.1-1-0.6-0.9-1.1c0-0.2,1.7-16.7-1.7-31.8
					c-3.3-14.9-15.9-24.2-16-24.3c-0.5-0.3-0.6-1-0.2-1.4c0.3-0.5,1-0.6,1.4-0.2c0.5,0.4,13.3,9.9,16.8,25.5
					c3.5,15.4,1.7,32.3,1.7,32.4C64.3,81.4,63.9,81.8,63.3,81.8L63.3,81.8z"/>
				<path fill="#102638" d="M19.6,68.2c-0.5,0-1-0.4-1-0.9c-2.1-24.6,6.2-32.5,6.6-32.8c0.4-0.4,1.1-0.3,1.5,0.1
					c0.4,0.4,0.4,1.1-0.1,1.5c-0.1,0.1-7.9,7.7-5.9,31.1C20.7,67.6,20.3,68.1,19.6,68.2C19.7,68.2,19.6,68.2,19.6,68.2z"/>
				<path fill="#102638" d="M50,38.6c-0.3,0-0.7-0.2-0.9-0.5c-6.6-10.6-15.2-7-15.6-6.9c-0.5,0.2-1.1,0-1.3-0.5s0-1.1,0.5-1.4
					c0.1,0,10.6-4.5,18.2,7.7c0.3,0.5,0.2,1.1-0.3,1.4C50.4,38.5,50.2,38.6,50,38.6L50,38.6z"/>
				<path fill="#102638" d="M28.1,56.2c-0.1,0-0.2,0-0.3,0c-0.5-0.2-0.9-0.7-0.7-1.3c0.1-0.4,3-10.7,9.6-9.9c6.3,0.7,8.8,5.8,8.9,6
					c0.2,0.5,0,1.1-0.5,1.4s-1.1,0-1.4-0.5c-0.1-0.2-2.2-4.3-7.3-4.9c-4.8-0.6-7.4,8.3-7.4,8.4C28.9,55.9,28.5,56.2,28.1,56.2
					L28.1,56.2z"/>
				<path fill="#102638" d="M23.7,61.4c-0.6,0-1-0.5-1-1c0-0.6,0-13.7,6.7-20c2.5-2.4,5.5-3.5,9.1-3.3c0.6,0,1,0.5,1,1.1
					s-0.5,1-1.1,1c-3-0.1-5.5,0.8-7.6,2.8c-6,5.8-6,18.4-6,18.5C24.7,61,24.2,61.4,23.7,61.4L23.7,61.4L23.7,61.4z"/>
				<path fill="#102638" d="M17.4,83.2c-0.4,0-0.8-0.2-1-0.6C14.1,76.6,13,63.7,13,63.2c0-0.6,0.4-1.1,0.9-1.1
					c0.6,0,1.1,0.4,1.1,0.9c0,0.1,1.1,13.1,3.4,18.8c0.2,0.5,0,1.1-0.6,1.3C17.7,83.2,17.6,83.2,17.4,83.2z"/>
				<path fill="#102638" d="M25.9,96.5c0,0-0.1,0-0.1,0c-0.6-0.1-1-0.6-0.9-1.1c0-0.2,1.5-14.8,0.7-29.1c0-0.6,0.4-1.1,1-1.1
					c0.6,0,1,0.4,1.1,1c0.8,14.5-0.7,29.3-0.7,29.4C26.8,96.1,26.4,96.5,25.9,96.5L25.9,96.5z"/>
				<path fill="#102638" d="M54.3,63.9c-0.5,0-0.9-0.4-1-0.9c-2.1-14.6-8.6-20.6-8.7-20.7c-0.4-0.4-0.5-1-0.1-1.5
					c0.4-0.4,1-0.5,1.5-0.1c0.3,0.3,7.2,6.5,9.4,22c0.1,0.6-0.3,1.1-0.9,1.2C54.4,63.9,54.3,63.9,54.3,63.9z"/>
				<path fill="#102638" d="M54.6,96.7c-0.2,0-0.5-0.1-0.7-0.2c-0.4-0.4-0.5-1-0.2-1.4c0,0,2.8-3.9,4.5-20.9
					c1.7-17.3-5.5-30.7-5.6-30.8c-0.3-0.5-0.1-1.1,0.4-1.4c0.5-0.3,1.1-0.1,1.4,0.4c0.3,0.6,7.6,14.1,5.8,32
					c-1.8,17.7-4.6,21.6-4.9,22C55.2,96.6,54.9,96.7,54.6,96.7L54.6,96.7z"/>
				<path fill="#102638" d="M46.5,75.5c-0.5,0-1-0.4-1-1c-0.3-8.5-2.9-16.7-5.9-19.1c-0.6-0.5-1.2-0.7-1.7-0.6
					c-2.9,0.5-3.3,6.7-3.3,8.8c0,0.6-0.4,1-1,1.1c-0.6,0-1-0.4-1.1-1c0-1-0.2-9.9,5-10.9c1.1-0.2,2.3,0.1,3.4,1
					c3.5,2.8,6.3,11.5,6.6,20.6C47.6,75,47.2,75.5,46.5,75.5C46.6,75.5,46.6,75.5,46.5,75.5L46.5,75.5z"/>
				<path fill="#102638" d="M33.8,102c-0.1,0-0.2,0-0.3-0.1c-0.5-0.2-0.8-0.7-0.7-1.3c2.7-8.7-0.4-29.9-0.4-30.1
					c-0.1-0.6,0.3-1.1,0.9-1.2c0.5-0.1,1.1,0.3,1.2,0.9c0.1,0.9,3.2,21.9,0.4,31C34.6,101.7,34.2,102,33.8,102L33.8,102z"/>
				<path fill="#102638" d="M51.1,79.5C51.1,79.5,51.1,79.5,51.1,79.5c-0.6,0-1-0.5-1-1.1c0.4-10.3-2.7-21.3-2.8-21.4
					c-0.2-0.5,0.2-1.1,0.7-1.3c0.5-0.2,1.1,0.2,1.3,0.7c0.1,0.5,3.3,11.4,2.8,22.1C52.1,79.1,51.7,79.6,51.1,79.5L51.1,79.5z"/>
				<path fill="#102638" d="M45,102c-0.3,0-0.5-0.1-0.7-0.3c-0.4-0.4-0.4-1,0-1.4c8.4-8.9,9.2-24.2,9.2-24.3c0-0.6,0.5-1,1.1-1
					c0.6,0,1,0.5,1,1.1c0,0.7-0.9,16.2-9.8,25.6C45.6,101.9,45.3,102,45,102L45,102z"/>
				<path fill="#102638" d="M38.2,104.7c-0.1,0-0.2,0-0.3-0.1c-0.5-0.2-0.8-0.8-0.6-1.3c0-0.1,1.6-5,2.2-19.6
					c0.6-14.6-1.4-20.3-1.4-20.4c-0.2-0.5,0.1-1.1,0.6-1.3c0.5-0.2,1.1,0.1,1.3,0.6c0.1,0.2,2.1,6.1,1.5,21.2
					c-0.6,15-2.3,20-2.3,20.2C39,104.4,38.6,104.7,38.2,104.7L38.2,104.7z"/>
				<path fill="#102638" d="M45.6,92.1c-0.1,0-0.2,0-0.3-0.1c-0.5-0.2-0.8-0.8-0.7-1.3c1.5-4.5,0.8-12.8,0.8-12.9
					c0-0.6,0.4-1.1,0.9-1.1c0.6,0,1.1,0.4,1.1,0.9c0,0.3,0.7,8.7-0.9,13.7C46.5,91.8,46.1,92.1,45.6,92.1L45.6,92.1z"/>
				<path fill="#102638" d="M22.3,91.7c-0.5,0-1-0.4-1-0.9c-1.7-13-2.1-19.2-2.1-19.2c0-0.6,0.4-1.1,1-1.1c0.6,0,1,0.4,1.1,1
					c0,0.1,0.4,6.2,2,19.1c0.1,0.6-0.3,1.1-0.9,1.2C22.4,91.7,22.3,91.7,22.3,91.7L22.3,91.7z"/>
			</g>
		</g>
		<circle fill="#57FA7B" cx="98.3" cy="24.9" r="24.1"/>
		<path fill="#FFFFFF" d="M94.6,35.3c0,0-0.1,0-0.1,0c-0.9,0-1.7-0.4-2.2-1.1L86.1,27c-1.1-1.3-0.9-3.2,0.4-4.3
			c1.3-1.1,3.2-0.9,4.3,0.4l4,4.7L106,16.4c1.2-1.2,3.1-1.2,4.3,0c1.2,1.2,1.2,3.1,0,4.3L96.7,34.4C96.2,35,95.4,35.3,94.6,35.3
			L94.6,35.3z"/>
	</g>
</g>
</svg>
