<?xml version="1.0" encoding="UTF-8"?><svg id="Capa_13" xmlns="http://www.w3.org/2000/svg" viewBox="0 0 418.09 51.14"><defs><style>.cls-1{fill:#fff;}.cls-2{opacity:.6;}.cls-3{fill:#57fa7b;}</style></defs><g class="cls-2"><path class="cls-3" d="M418.09,21.45v8.69c0,11.6-9.4,21-21,21H237.37c-1.46,0-2.89-.15-4.27-.44H21C9.4,50.7,0,41.29,0,29.7v-8.7C0,9.41,9.4,0,21,0H287.9c1.48,0,2.93,.15,4.32,.45h104.87c11.6,0,21,9.4,21,21Z"/></g><g><g><polygon class="cls-1" points="79.87 25.3 79.83 16.3 90.81 14.69 90.79 25.25 79.87 25.3"/><polygon class="cls-1" points="92.06 14.57 106.41 12.46 106.51 25.1 92.11 25.18 92.06 14.57"/><polygon class="cls-1" points="92.01 26.45 92.01 37.01 106.45 39.14 106.48 26.58 92.01 26.45"/><polygon class="cls-1" points="79.92 26.37 90.73 26.39 90.78 36.9 79.89 35.39 79.92 26.37"/></g><g><path class="cls-1" d="M117.14,33.11l-5.55-16.97h4.07l4.83,15.03h-2.04l5.04-15.03h3.64l4.85,15.03h-1.96l4.95-15.03h3.76l-5.55,16.97h-4.22l-4.29-13.19h1.12l-4.41,13.19h-4.22Z"/><path class="cls-1" d="M141.17,33.11V16.14h3.93v16.97h-3.93Z"/><path class="cls-1" d="M149.39,33.11V16.14h3.25l10.01,12.22h-1.58v-12.22h3.88v16.97h-3.22l-10.04-12.22h1.58v12.22h-3.88Z"/><path class="cls-1" d="M169.24,33.11V16.14h7.71c1.84,0,3.47,.35,4.87,1.05s2.5,1.68,3.3,2.95,1.19,2.76,1.19,4.49-.4,3.2-1.19,4.47c-.79,1.27-1.89,2.25-3.3,2.96s-3.03,1.05-4.87,1.05h-7.71Zm3.93-3.22h3.59c1.13,0,2.11-.21,2.95-.64,.83-.43,1.48-1.04,1.94-1.83,.46-.79,.69-1.72,.69-2.79s-.23-2.02-.69-2.8c-.46-.78-1.11-1.39-1.94-1.82-.83-.43-1.82-.64-2.95-.64h-3.59v10.52Z"/><path class="cls-1" d="M197.78,33.4c-1.34,0-2.58-.22-3.72-.65-1.14-.44-2.13-1.05-2.96-1.84-.83-.79-1.48-1.72-1.94-2.79-.46-1.07-.69-2.23-.69-3.49s.23-2.42,.69-3.49c.46-1.07,1.11-2,1.95-2.79,.84-.79,1.83-1.41,2.96-1.84,1.13-.44,2.36-.65,3.69-.65s2.57,.22,3.7,.65c1.12,.44,2.1,1.05,2.93,1.84,.83,.79,1.48,1.72,1.95,2.78s.7,2.23,.7,3.5-.23,2.43-.7,3.5-1.12,2-1.95,2.79c-.83,.78-1.81,1.39-2.93,1.83-1.12,.44-2.35,.65-3.67,.65Zm-.02-3.35c.76,0,1.46-.13,2.1-.39,.64-.26,1.2-.63,1.68-1.12s.86-1.06,1.13-1.72c.27-.66,.4-1.4,.4-2.21s-.13-1.54-.4-2.21c-.27-.66-.64-1.24-1.12-1.72-.48-.49-1.04-.86-1.68-1.12-.65-.26-1.35-.39-2.11-.39s-1.46,.13-2.1,.39c-.64,.26-1.2,.63-1.69,1.12-.49,.48-.86,1.06-1.13,1.72-.27,.66-.4,1.4-.4,2.21s.13,1.52,.4,2.19c.27,.67,.64,1.25,1.12,1.73,.48,.48,1.04,.86,1.68,1.12s1.35,.39,2.11,.39Z"/><path class="cls-1" d="M213.78,33.11l-5.55-16.97h4.07l4.83,15.03h-2.04l5.04-15.03h3.64l4.85,15.03h-1.96l4.95-15.03h3.76l-5.55,16.97h-4.22l-4.29-13.19h1.12l-4.41,13.19h-4.22Z"/><path class="cls-1" d="M243.39,33.4c-1.36,0-2.66-.18-3.9-.55-1.25-.36-2.25-.84-3.01-1.42l1.33-2.96c.73,.52,1.59,.94,2.58,1.27,.99,.33,2,.5,3.02,.5,.78,0,1.4-.08,1.88-.23,.48-.15,.83-.37,1.05-.64,.23-.28,.34-.59,.34-.95,0-.45-.18-.81-.53-1.08-.36-.27-.82-.49-1.41-.66s-1.22-.33-1.93-.48-1.41-.34-2.11-.57c-.7-.23-1.34-.52-1.93-.87-.58-.35-1.05-.82-1.42-1.41-.36-.58-.54-1.32-.54-2.23,0-.97,.26-1.85,.79-2.65,.52-.8,1.32-1.44,2.38-1.92,1.06-.48,2.39-.71,3.99-.71,1.07,0,2.12,.12,3.15,.38s1.95,.63,2.74,1.13l-1.21,2.98c-.79-.45-1.58-.79-2.38-1.01-.79-.22-1.57-.33-2.33-.33s-1.38,.09-1.87,.27c-.48,.18-.83,.41-1.04,.69-.21,.28-.32,.61-.32,.98,0,.44,.18,.79,.53,1.05s.82,.48,1.41,.64c.58,.16,1.22,.32,1.93,.48,.7,.16,1.41,.35,2.11,.56,.7,.21,1.35,.49,1.93,.85,.58,.36,1.05,.82,1.42,1.41s.55,1.32,.55,2.21c0,.95-.27,1.83-.8,2.62s-1.33,1.43-2.39,1.92c-1.06,.49-2.4,.73-4.01,.73Z"/><path class="cls-1" d="M264.79,33.3c-1.12,0-2.19-.13-3.21-.4-1.03-.27-1.84-.6-2.44-1.01l1.26-2.72c.6,.37,1.3,.67,2.12,.91s1.62,.35,2.41,.35c.87,0,1.49-.1,1.86-.32,.36-.21,.54-.5,.54-.87,0-.31-.14-.54-.42-.69-.28-.15-.66-.27-1.13-.35s-.98-.16-1.54-.24-1.12-.19-1.69-.33c-.57-.14-1.08-.34-1.55-.62-.47-.27-.84-.65-1.13-1.12-.28-.47-.42-1.07-.42-1.82,0-.82,.24-1.55,.72-2.18,.48-.63,1.17-1.13,2.07-1.49s1.99-.55,3.25-.55c.89,0,1.79,.1,2.72,.29,.92,.19,1.69,.48,2.3,.85l-1.26,2.69c-.63-.37-1.26-.63-1.9-.76-.64-.14-1.26-.21-1.86-.21-.84,0-1.45,.11-1.84,.34-.39,.23-.58,.52-.58,.87,0,.32,.14,.57,.42,.73,.28,.16,.66,.29,1.13,.39,.47,.1,.98,.18,1.54,.25,.56,.07,1.12,.18,1.68,.33,.57,.15,1.08,.35,1.54,.62s.84,.63,1.13,1.09c.29,.46,.44,1.06,.44,1.81,0,.81-.24,1.52-.73,2.15-.49,.62-1.18,1.11-2.1,1.47-.91,.36-2.02,.53-3.33,.53Z"/><path class="cls-1" d="M280.02,33.3c-1.49,0-2.79-.29-3.92-.87-1.12-.58-1.99-1.38-2.61-2.39-.61-1.01-.92-2.16-.92-3.45s.3-2.47,.91-3.48c.61-1.01,1.43-1.8,2.49-2.38,1.05-.57,2.24-.86,3.56-.86s2.43,.27,3.46,.81c1.03,.54,1.84,1.32,2.44,2.33,.6,1.01,.9,2.22,.9,3.62,0,.15,0,.31-.02,.5-.02,.19-.03,.36-.05,.52h-10.59v-2.21h8.61l-1.45,.65c0-.68-.14-1.27-.41-1.77-.27-.5-.65-.89-1.14-1.18-.49-.28-1.05-.42-1.7-.42s-1.22,.14-1.71,.42c-.49,.28-.88,.68-1.15,1.19-.28,.51-.41,1.11-.41,1.81v.58c0,.71,.16,1.34,.47,1.88,.32,.54,.76,.95,1.33,1.24,.57,.28,1.25,.42,2.02,.42,.69,0,1.3-.1,1.83-.32,.53-.21,1.01-.52,1.44-.95l2.01,2.18c-.6,.68-1.35,1.2-2.25,1.56s-1.95,.55-3.13,.55Z"/><path class="cls-1" d="M289.11,33.11v-13.04h3.61v3.69l-.51-1.07c.39-.92,1.01-1.62,1.87-2.1s1.9-.72,3.13-.72v3.49c-.16-.02-.31-.03-.44-.04-.13,0-.27-.01-.41-.01-1.04,0-1.87,.29-2.51,.88s-.96,1.51-.96,2.75v6.16h-3.78Z"/><path class="cls-1" d="M303.73,33.11l-5.48-13.04h3.9l4.56,11.23h-1.94l4.73-11.23h3.64l-5.5,13.04h-3.9Z"/><path class="cls-1" d="M321.06,33.3c-1.49,0-2.79-.29-3.92-.87-1.12-.58-1.99-1.38-2.61-2.39-.61-1.01-.92-2.16-.92-3.45s.3-2.47,.91-3.48c.61-1.01,1.43-1.8,2.49-2.38,1.05-.57,2.24-.86,3.56-.86s2.43,.27,3.46,.81c1.03,.54,1.84,1.32,2.44,2.33,.6,1.01,.9,2.22,.9,3.62,0,.15,0,.31-.02,.5-.02,.19-.03,.36-.05,.52h-10.59v-2.21h8.61l-1.45,.65c0-.68-.14-1.27-.41-1.77-.27-.5-.65-.89-1.14-1.18-.49-.28-1.05-.42-1.7-.42s-1.22,.14-1.71,.42c-.49,.28-.88,.68-1.15,1.19-.28,.51-.41,1.11-.41,1.81v.58c0,.71,.16,1.34,.47,1.88,.32,.54,.76,.95,1.33,1.24,.57,.28,1.25,.42,2.02,.42,.69,0,1.3-.1,1.83-.32,.53-.21,1.01-.52,1.44-.95l2.01,2.18c-.6,.68-1.35,1.2-2.25,1.56s-1.95,.55-3.13,.55Z"/><path class="cls-1" d="M330.16,33.11v-13.04h3.61v3.69l-.51-1.07c.39-.92,1.01-1.62,1.87-2.1s1.9-.72,3.13-.72v3.49c-.16-.02-.31-.03-.44-.04-.13,0-.27-.01-.41-.01-1.04,0-1.87,.29-2.51,.88s-.96,1.51-.96,2.75v6.16h-3.78Z"/></g></g></svg>