<?xml version="1.0" encoding="UTF-8"?><svg id="Capa_13" xmlns="http://www.w3.org/2000/svg" viewBox="0 0 201.71 50.69"><defs><style>.cls-1{fill:#fff;}.cls-2{opacity:.6;}.cls-3{fill:#57fa7b;}</style></defs><g class="cls-2"><rect class="cls-3" y="0" width="201.71" height="50.69" rx="21" ry="21"/></g><g><path class="cls-1" d="M78.07,21.61c3.37,0,6.65-.02,9.92,.01,.77,0,1.15-.15,1.32-1.01,.58-2.89,1.53-5.68,3.06-8.22,2.04-3.37,4.84-5.96,8.6-7.28,1.53-.54,3.16-.81,4.8-.94,.53-.04,1.08-.05,1.4,.49,.28,.48-.05,.87-.27,1.27-2.29,4.29-2.33,8.74-.88,13.28,.03,.09,.07,.18,.1,.28,.74,2.1,.74,2.11,3.05,2.11,21.45,0,42.91,0,64.36-.01,.74,0,1.42-.04,1.3,1.04-.05,.44-.22,.66-.66,.66-.23,0-.46,0-.69,0-22.18,0-44.35,0-66.53,.02-.95,0-1.51-.36-1.8-1.17-1.63-4.66-2.68-9.37-.87-14.25,.16-.43,.3-.86,.43-1.3,.03-.11-.02-.25-.04-.46-1.24,.02-2.44,.29-3.53,.72-3.3,1.3-5.78,3.55-7.48,6.7-1.52,2.82-2.51,5.79-2.96,8.94-.07,.47-.34,.69-.77,.76-.26,.04-.52,.03-.78,.03-18.15,0-36.29,0-54.44,0-1.15,0-1.39-.21-1.28-1.04,.06-.43,.25-.65,.7-.64,.59,0,1.18,0,1.77,0,14.02,0,28.04,0,42.16,0Z"/><path class="cls-1" d="M149.63,42.91c-1.33,.17-2.07-.21-2.66-1.47-.77-1.67-1.94-3.16-2.96-4.71-.4-.61-1.85-1.08-2.58-.9-.59,.14-.53,.64-.53,1.02,.02,1.47-.12,2.93,.03,4.4,.16,1.59,.05,1.65-1.54,1.65-.2,0-.4-.02-.59,0-.94,.12-1.25-.27-1.24-1.21,.04-5.06,.04-10.13,.01-15.19,0-.84,.24-1.19,1.11-1.15,2.52,.1,5.04-.12,7.55,.16,2.51,.28,4.17,2.12,4.25,4.65,.05,1.56-.32,2.88-1.51,3.96-.43,.39-.83,.69-1.41,.79-.59,.11-.82,.54-.31,.96,1.2,.99,1.79,2.39,2.6,3.64,.67,1.02,1.18,2.14,1.78,3.26-.7,.24-1.33,.08-2.03,.13Zm-3.01-10.82c.6-.75,.79-1.56,.31-2.45-.49-.9-1.28-1.1-2.24-1.06-.98,.04-1.96,.03-2.94,0-.63-.02-.9,.27-.88,.88,.03,.88,.08,1.76,.11,2.64,.01,.54,.3,.75,.81,.75,.91,0,1.83,0,2.74-.02,.73,0,1.44-.05,2.1-.73Z"/><path class="cls-1" d="M153.42,41.16c0-2.89,0-5.7,0-8.5,0-2.12,.01-4.24,0-6.36,0-.65,.3-.9,.95-.94,2.35-.13,2.35-.15,2.36,2.17,0,1.62,0,3.24,0,5.04,1.34-.95,2.04-2.18,2.97-3.19,1.07-1.17,2.04-2.44,3.05-3.65,.1-.12,.26-.24,.4-.26,1.29-.14,2.57-.15,3.84-.02,.06,.48-.22,.65-.4,.86-1.6,1.85-3.2,3.69-4.81,5.53-.33,.37-.37,.71-.1,1.15,1.4,2.27,2.83,4.52,4.16,6.83,.56,.97,1.11,1.96,1.81,3.08-1.47,0-2.76,.02-4.06-.01-.35,0-.51-.33-.67-.64-1.22-2.37-2.46-4.73-3.69-7.09-.03-.05-.1-.08-.2-.14-.67,.73-1.35,1.46-2.03,2.19-.3,.32-.27,.72-.27,1.11,0,1.21-.04,2.42,0,3.63,.03,.78-.3,1.07-1.05,.99-.23-.02-.46,0-.69,0q-1.68,0-1.6-1.76Z"/><path class="cls-1" d="M106.12,30.49c0-1.44,.03-2.78,0-4.12-.02-.69,.18-1.02,.93-1.02,2.79,0,2.33-.16,2.35,2.26,.01,1.24,.03,2.48,0,3.72-.02,.68,.24,.94,.92,.93,1.37-.03,2.75-.03,4.12,0,.73,.02,.97-.28,.95-.99-.03-1.63,.02-3.27,0-4.9-.01-.72,.28-.99,.98-1,2.65-.02,2.4-.2,2.4,2.23,0,4.73-.02,9.47,0,14.2,0,.85-.3,1.14-1.15,1.12-2.41-.08-2.28,.39-2.24-2.24,.03-1.47-.02-2.94,0-4.41,.01-.64-.26-.88-.87-.87-1.41,.01-2.82,.02-4.22-.01-.69-.02-.92,.27-.91,.93,.03,1.86-.02,3.72,.02,5.58,.02,.76-.24,1.03-1.02,1.01-2.57-.06-2.26,.28-2.27-2.24-.02-3.36,0-6.73,0-10.19Z"/><path class="cls-1" d="M97.77,31.99c1.18,.43,2.36,.69,3.36,1.28,1.43,.85,2.29,2.14,2.36,3.92,.08,2.01-.3,3.83-2.03,5.02-1.38,.95-3.04,1.15-4.7,1.08-3.32-.14-5.59-2.16-6.05-5.31-.07-.47-.03-.82,.5-.83,.82-.01,1.6-.36,2.49-.18,.47,.89,.61,2.01,1.63,2.64,1.25,.78,3.2,.74,4.31-.21,.83-.71,.5-2.61-.52-3.02-1.52-.61-3.11-1-4.64-1.56-2.44-.88-4-3.89-2.9-6.41,.91-2.09,2.48-3.18,4.83-3.07,1.55,.07,3.14-.21,4.52,.86,1.19,.91,1.82,2.1,2.12,3.51,.11,.54-.07,.89-.71,.88-.36,0-.72,.06-1.07,.12-.88,.15-1.51-.03-1.77-1.03-.21-.83-.9-1.17-1.7-1.25-.49-.05-.98-.06-1.47-.02-1.22,.09-1.83,.54-1.89,1.33-.06,.79,.72,1.68,1.73,1.84,.53,.08,1.01,.26,1.58,.43Z"/><path class="cls-1" d="M36.75,40.13c-1.25-4.61-2.24-9.2-3.31-13.76-.09-.36-.34-.85,.37-.99,1.01-.2,1.79,.05,1.85,.72,.21,2.39,1.13,4.63,1.45,6.98,.3,2.2,.9,4.32,1.44,6.49,.25-2.54,1.44-4.84,1.78-7.36,.17-1.28,.68-2.52,1.03-3.77,.14-.5,.3-1,.41-1.51,.33-1.46,.91-1.83,2.41-1.54,.48,.09,.68,.41,.73,.81,.34,2.6,1.4,5.01,1.84,7.59,.32,1.86,.96,3.66,1.31,5.52,1.28-4.22,1.84-8.59,3.04-12.81,.12-.42,.08-.92,.68-1.07,1.25-.32,1.64,.04,1.36,1.27-.97,4.29-2.03,8.55-3.17,12.8-.23,.84-.3,1.72-.51,2.58-.21,.88-.81,.86-1.49,.87-.69,.02-1.06-.16-1.23-.91-.87-3.71-1.79-7.41-2.71-11.11-.18-.71-.42-1.4-.71-2.1-.48,1.64-1.06,3.22-1.35,4.89-.21,1.21-.65,2.39-.95,3.59-.39,1.58-.78,3.16-1.11,4.75-.26,1.26-1.23,.8-1.96,.85-.74,.05-.76-.51-.82-1.07-.06-.55-.22-1.08-.35-1.7Z"/><path class="cls-1" d="M125.92,39.13c-.72-.05-1.06,.28-1.22,.85-.06,.22-.13,.44-.21,.65-.92,2.49-1.12,2.61-3.94,2.18-.31-.89,.25-1.61,.52-2.38,1.17-3.32,2.32-6.64,3.54-9.94,.53-1.43,.83-2.94,1.48-4.34,.25-.53,.52-.79,1.08-.78,.03,0,.07,0,.1,0,.72,.01,1.46-.07,2.15,.07,.9,.18,.59,1.14,.84,1.72,1.15,2.72,2.09,5.52,3.05,8.32,.72,2.12,1.57,4.2,2.36,6.31,.11,.3,.31,.58,.24,1.09-1,0-2.02,.01-3.05,0-.39,0-.55-.32-.65-.64-.24-.78-.68-1.48-.76-2.32-.06-.58-.43-.82-1.02-.81-1.47,.02-2.94,0-4.5,0Zm.69-4.88c-.11,.52-.56,.96-.36,1.71,1.02,0,2.06,.01,3.09,0,.57-.01,.64-.41,.49-.83-.55-1.55-1.14-3.08-1.73-4.67-.12,.09-.27,.13-.32,.23-.54,1.08-.85,2.24-1.18,3.56Z"/><path class="cls-1" d="M70.75,35.87c1.23,1.12,1.89,2.54,2.63,3.9,.38,.69,.88,1.29,1.23,1.98,.16,.31,.4,.6,.35,.99-1.82,.56-2.42,.26-3.32-1.36-.77-1.39-1.68-2.7-2.5-4.07-.91-1.53-2.2-2.19-4.01-2.06-1.54,.11-1.55,.02-1.55,1.54,0,1.73-.03,3.46,0,5.19,.02,.83-.41,.97-1.11,.95-.67-.02-1.21,0-1.21-.95,.03-5.22,.02-10.45,0-15.67,0-.66,.22-.96,.91-.94,2.48,.08,4.96-.06,7.45,.12,3.49,.26,4.73,3.38,4.05,6.21-.44,1.85-1.75,2.79-3.45,3.31-.11,.43,.26,.57,.5,.86Zm-5.53-2.69c1.15,0,2.29,.01,3.44,0,1.7-.02,3.03-1.25,3.05-2.81,.03-1.58-1.11-2.69-2.93-2.76-1.44-.06-2.88,0-4.32-.04-.69-.02-.91,.29-.89,.95,.04,1.08,.01,2.16,.01,3.24q0,1.43,1.63,1.43Z"/><path class="cls-1" d="M85.15,40.82c1.02,0,1.93,.04,2.85,0,.84-.04,.96,.4,.96,1.09,0,.66-.13,1.03-.92,1.02-3.34-.03-6.68-.03-10.02,0-.79,0-1.01-.31-1.01-1.05,.02-5.16,.03-10.33,0-15.49,0-.77,.28-1.03,1.03-1.03,3.14,.02,6.29,.03,9.43-.02,1.02-.02,1.04,.53,1.08,1.3,.04,.88-.35,1.01-1.11,.99-2.32-.04-4.65,0-6.97-.02-.87,0-1.24,.3-1.18,1.22,.07,1.04,.04,2.09,.01,3.14-.02,.64,.24,.87,.86,.87,2.22,.01,4.45,.11,6.67,.07,.83-.01,1,.32,1.03,1.01,.03,.72-.19,1.1-.99,1.09-2.13-.03-4.26,.02-6.38-.03-.87-.02-1.26,.18-1.2,1.14,.08,1.24,.06,2.48,0,3.72-.04,.8,.28,1.01,1.03,.99,1.57-.04,3.14-.01,4.81-.01Z"/><path class="cls-1" d="M56.84,42.91c-1,.13-1.26-.27-1.26-1.16,.04-5.06,.02-10.13,.01-15.19,0-.71,.08-1.19,.98-1.21,.85-.01,1.15,.29,1.14,1.14-.03,4.41-.01,8.82,0,13.23,0,.82-.02,1.63,0,2.45,.01,.56-.24,.78-.86,.73Z"/></g></svg>